{
  "source": "C:\\Users\\Peter\\Desktop\\stuff\\MIUN\\quantitative_research\\video_compression\\videos\\BVI-HD\\BVI-HD_CDVL_videos\\ORIG\\Grass_1920x1080_60fps.mp4",
  "output": "C:\\Users\\Peter\\Desktop\\stuff\\MIUN\\quantitative_research\\video_compression\\compressed_videos\\BVI-HD\\hevc\\2.5\\Grass_1920x1080_60fps_hevc.mp4",
  "codec": "hevc",
  "ok": "Input #0, mov,mp4,m4a,3gp,3g2,mj2, from 'C:\\Users\\Peter\\Desktop\\stuff\\MIUN\\quantitative_research\\video_compression\\videos\\BVI-HD\\BVI-HD_CDVL_videos\\ORIG\\Grass_1920x1080_60fps.mp4':\n  Metadata:\n    major_brand     : isom\n    minor_version   : 512\n    compatible_brands: isomiso2avc1mp41\n    encoder         : Lavf54.28.101\n  Duration: 00:00:05.00, start: 0.000000, bitrate: 655968 kb/s\n  Stream #0:0[0x1](und): Video: h264 (High 4:4:4 Predictive) (avc1 / 0x31637661), yuv420p(progressive), 1920x1080, 655963 kb/s, 60 fps, 60 tbr, 60 tbn (default)\n    Metadata:\n      handler_name    : VideoHandler\n      vendor_id       : [0][0][0][0]\n[out#0/mp4 @ 000001706b06f040] Codec AVOption b:a (set bitrate (in bits/s)) has not been used for any stream. The most likely reason is either wrong type (e.g. a video option with no video streams) or that it is a private option of some decoder which was not actually used for any stream.\nStream mapping:\n  Stream #0:0 -> #0:0 (h264 (native) -> hevc (libx265))\nPress [q] to stop, [?] for help\n[libx265 @ 000001706a17c500] Unknown option: \"aq-mode.\nx265 [info]: HEVC encoder version 4.1+190-8f11c33ac\nx265 [info]: build info [Windows][GCC 15.1.0][64 bit] 10bit\nx265 [info]: using cpu capabilities: MMX2 SSE2Fast LZCNT SSSE3 SSE4.2 AVX FMA3 BMI2 AVX2\nx265 [info]: Main 10 profile, Level-4.1 (Main tier)\nx265 [info]: Thread pool created using 12 threads\nx265 [info]: Slices                              : 1\nx265 [info]: frame threads / pool features       : 3 / wpp(17 rows)\nx265 [info]: Coding QT: max CU size, min CU size : 64 / 8\nx265 [info]: Residual QT: max TU size, max depth : 32 / 1 inter / 1 intra\nx265 [info]: ME / range / subpel / merge         : star / 57 / 3 / 3\nx265 [info]: Keyframe min / max / scenecut / bias  : 25 / 250 / 40 / 5.00 \nx265 [info]: Lookahead / bframes / badapt        : 25 / 4 / 2\nx265 [info]: b-pyramid / weightp / weightb       : 1 / 1 / 0\nx265 [info]: References / ref-limit  cu / depth  : 4 / on / on\nx265 [info]: AQ: mode / str / qg-size / cu-tree  : 2 / 1.0 / 32 / 1\nx265 [info]: Rate Control / qCompress            : ABR-2500 kbps / 0.60\nx265 [info]: VBV/HRD buffer / max-rate / init    : 2500 / 2500 / 0.750\nx265 [info]: tools: rect limit-modes rd=4 psy-rd=2.00 rdoq=2 psy-rdoq=1.00\nx265 [info]: tools: rskip mode=1 signhide tmvp strong-intra-smoothing lslices=4\nx265 [info]: tools: deblock sao dhdr10-info\nOutput #0, mp4, to 'C:\\Users\\Peter\\Desktop\\stuff\\MIUN\\quantitative_research\\video_compression\\compressed_videos\\BVI-HD\\hevc\\2.5\\Grass_1920x1080_60fps_hevc.mp4':\n  Metadata:\n    major_brand     : isom\n    minor_version   : 512\n    compatible_brands: isomiso2avc1mp41\n    encoder         : Lavf62.3.100\n  Stream #0:0(und): Video: hevc (hev1 / 0x31766568), yuv420p10le(tv, progressive), 1920x1080, q=2-31, 2500 kb/s, 60 fps, 15360 tbn (default)\n    Metadata:\n      encoder         : Lavc62.11.100 libx265\n      handler_name    : VideoHandler\n      vendor_id       : [0][0][0][0]\n    Side data:\n      cpb: bitrate max/min/avg: 2500000/0/2500000 buffer size: 2500000 vbv_delay: N/A\nframe=    0 fps=0.0 q=0.0 size=       0KiB time=N/A bitrate=N/A speed=N/A elapsed=0:00:00.51    \nframe=    0 fps=0.0 q=0.0 size=       0KiB time=N/A bitrate=N/A speed=N/A elapsed=0:00:01.02    \nframe=    0 fps=0.0 q=0.0 size=       0KiB time=N/A bitrate=N/A speed=N/A elapsed=0:00:01.56    \nframe=    0 fps=0.0 q=0.0 size=       0KiB time=N/A bitrate=N/A speed=N/A elapsed=0:00:02.07    \nframe=    0 fps=0.0 q=0.0 size=       0KiB time=N/A bitrate=N/A speed=N/A elapsed=0:00:02.59    \nframe=    0 fps=0.0 q=0.0 size=       0KiB time=N/A bitrate=N/A speed=N/A elapsed=0:00:03.10    \nframe=    0 fps=0.0 q=0.0 size=       0KiB time=N/A bitrate=N/A speed=N/A elapsed=0:00:03.62    \nframe=    0 fps=0.0 q=0.0 size=       0KiB time=N/A bitrate=N/A speed=N/A elapsed=0:00:04.13    \nframe=    0 fps=0.0 q=0.0 size=       0KiB time=N/A bitrate=N/A speed=N/A elapsed=0:00:04.65    \nframe=    1 fps=0.2 q=42.0 size=       0KiB time=-00:00:00.01 bitrate=N/A speed=N/A elapsed=0:00:05.17    \nframe=    3 fps=0.5 q=51.0 size=       0KiB time=00:00:00.01 bitrate=  21.1kbits/s speed=0.00293x elapsed=0:00:05.68    \nframe=    3 fps=0.5 q=51.0 size=       0KiB time=00:00:00.01 bitrate=  21.1kbits/s speed=0.00268x elapsed=0:00:06.21    \nframe=    3 fps=0.4 q=51.0 size=       0KiB time=00:00:00.01 bitrate=  21.1kbits/s speed=0.00247x elapsed=0:00:06.75    \nframe=    4 fps=0.6 q=51.0 size=       0KiB time=00:00:00.03 bitrate=  10.6kbits/s speed=0.00459x elapsed=0:00:07.26    \nframe=    4 fps=0.5 q=51.0 size=       0KiB time=00:00:00.03 bitrate=  10.6kbits/s speed=0.00428x elapsed=0:00:07.78    \nframe=    5 fps=0.6 q=51.0 size=       0KiB time=00:00:00.05 bitrate=   7.0kbits/s speed=0.00601x elapsed=0:00:08.31    \nframe=    5 fps=0.6 q=51.0 size=       0KiB time=00:00:00.05 bitrate=   7.0kbits/s speed=0.00566x elapsed=0:00:08.82    \nframe=    5 fps=0.5 q=51.0 size=       0KiB time=00:00:00.05 bitrate=   7.0kbits/s speed=0.00534x elapsed=0:00:09.36    \nframe=    6 fps=0.6 q=45.9 size=       0KiB time=00:00:00.06 bitrate=   5.3kbits/s speed=0.00671x elapsed=0:00:09.93    \nframe=    6 fps=0.6 q=45.9 size=       0KiB time=00:00:00.06 bitrate=   5.3kbits/s speed=0.00636x elapsed=0:00:10.48    \nframe=    6 fps=0.5 q=45.9 size=       0KiB time=00:00:00.06 bitrate=   5.3kbits/s speed=0.006x elapsed=0:00:11.10    \nframe=    6 fps=0.5 q=45.9 size=       0KiB time=00:00:00.06 bitrate=   5.3kbits/s speed=0.00566x elapsed=0:00:11.77    \nframe=    6 fps=0.5 q=45.9 size=       0KiB time=00:00:00.06 bitrate=   5.3kbits/s speed=0.00535x elapsed=0:00:12.47    \nframe=    6 fps=0.5 q=45.9 size=       0KiB time=00:00:00.06 bitrate=   5.3kbits/s speed=0.0051x elapsed=0:00:13.08    \nframe=    6 fps=0.4 q=45.9 size=       0KiB time=00:00:00.06 bitrate=   5.3kbits/s speed=0.00487x elapsed=0:00:13.69    \nframe=    7 fps=0.5 q=50.1 size=       0KiB time=00:00:00.08 bitrate=   4.2kbits/s speed=0.00585x elapsed=0:00:14.24    \nframe=    8 fps=0.5 q=49.1 size=       0KiB time=00:00:00.10 bitrate=   3.5kbits/s speed=0.00677x elapsed=0:00:14.77    \nframe=    8 fps=0.5 q=49.1 size=       0KiB time=00:00:00.10 bitrate=   3.5kbits/s speed=0.00652x elapsed=0:00:15.32    \nframe=    9 fps=0.6 q=47.9 size=       0KiB time=00:00:00.11 bitrate=   3.0kbits/s speed=0.00735x elapsed=0:00:15.86    \nframe=   11 fps=0.7 q=41.1 size=       0KiB time=00:00:00.15 bitrate=   2.3kbits/s speed=0.00913x elapsed=0:00:16.42    \nframe=   11 fps=0.6 q=41.1 size=       0KiB time=00:00:00.15 bitrate=   2.3kbits/s speed=0.00885x elapsed=0:00:16.94    \nframe=   11 fps=0.6 q=41.1 size=       0KiB time=00:00:00.15 bitrate=   2.3kbits/s speed=0.00859x elapsed=0:00:17.46    \nframe=   11 fps=0.6 q=41.1 size=       0KiB time=00:00:00.15 bitrate=   2.3kbits/s speed=0.00833x elapsed=0:00:18.00    \nframe=   12 fps=0.6 q=47.1 size=       0KiB time=00:00:00.16 bitrate=   2.1kbits/s speed=0.00898x elapsed=0:00:18.56    \nframe=   12 fps=0.6 q=47.1 size=       0KiB time=00:00:00.16 bitrate=   2.1kbits/s speed=0.00865x elapsed=0:00:19.25    \nframe=   13 fps=0.7 q=47.9 size=       0KiB time=00:00:00.18 bitrate=   1.9kbits/s speed=0.00925x elapsed=0:00:19.82    \nframe=   13 fps=0.6 q=47.9 size=       0KiB time=00:00:00.18 bitrate=   1.9kbits/s speed=0.00901x elapsed=0:00:20.34    \nframe=   13 fps=0.6 q=47.9 size=       0KiB time=00:00:00.18 bitrate=   1.9kbits/s speed=0.00877x elapsed=0:00:20.90    \nframe=   14 fps=0.7 q=42.3 size=       0KiB time=00:00:00.18 bitrate=   1.9kbits/s speed=0.00853x elapsed=0:00:21.50    \nframe=   14 fps=0.6 q=42.3 size=       0KiB time=00:00:00.20 bitrate=   1.8kbits/s speed=0.00905x elapsed=0:00:22.09    \nframe=   14 fps=0.6 q=42.3 size=       0KiB time=00:00:00.20 bitrate=   1.8kbits/s speed=0.00882x elapsed=0:00:22.68    \nframe=   14 fps=0.6 q=42.3 size=       0KiB time=00:00:00.20 bitrate=   1.8kbits/s speed=0.00858x elapsed=0:00:23.30    \nframe=   14 fps=0.6 q=42.3 size=       0KiB time=00:00:00.20 bitrate=   1.8kbits/s speed=0.00838x elapsed=0:00:23.85    \nframe=   15 fps=0.6 q=47.9 size=       0KiB time=00:00:00.21 bitrate=   1.6kbits/s speed=0.00887x elapsed=0:00:24.41    \nframe=   15 fps=0.6 q=47.9 size=       0KiB time=00:00:00.21 bitrate=   1.6kbits/s speed=0.00868x elapsed=0:00:24.95    \nframe=   15 fps=0.6 q=47.9 size=       0KiB time=00:00:00.21 bitrate=   1.6kbits/s speed=0.00847x elapsed=0:00:25.57    \nframe=   15 fps=0.6 q=47.9 size=       0KiB time=00:00:00.21 bitrate=   1.6kbits/s speed=0.00826x elapsed=0:00:26.22    \nframe=   16 fps=0.6 q=49.0 size=       0KiB time=00:00:00.23 bitrate=   1.5kbits/s speed=0.00871x elapsed=0:00:26.79    \nframe=   17 fps=0.6 q=49.0 size=       0KiB time=00:00:00.23 bitrate=   1.5kbits/s speed=0.00853x elapsed=0:00:27.34    \nframe=   17 fps=0.6 q=49.0 size=       0KiB time=00:00:00.25 bitrate=   1.4kbits/s speed=0.00895x elapsed=0:00:27.92    \nframe=   17 fps=0.6 q=49.0 size=       0KiB time=00:00:00.25 bitrate=   1.4kbits/s speed=0.00878x elapsed=0:00:28.47    \nframe=   17 fps=0.6 q=49.0 size=       0KiB time=00:00:00.25 bitrate=   1.4kbits/s speed=0.00861x elapsed=0:00:29.02    \nframe=   17 fps=0.6 q=49.0 size=       0KiB time=00:00:00.25 bitrate=   1.4kbits/s speed=0.00845x elapsed=0:00:29.58    \nframe=   18 fps=0.6 q=40.9 size=       0KiB time=00:00:00.25 bitrate=   1.4kbits/s speed=0.00829x elapsed=0:00:30.14    \nframe=   18 fps=0.6 q=40.9 size=       0KiB time=00:00:00.26 bitrate=   1.3kbits/s speed=0.00866x elapsed=0:00:30.77    \nframe=   18 fps=0.6 q=40.9 size=       0KiB time=00:00:00.26 bitrate=   1.3kbits/s speed=0.00851x elapsed=0:00:31.34    \nframe=   18 fps=0.6 q=40.9 size=       0KiB time=00:00:00.26 bitrate=   1.3kbits/s speed=0.00837x elapsed=0:00:31.87    \nframe=   19 fps=0.6 q=47.8 size=       0KiB time=00:00:00.28 bitrate=   1.2kbits/s speed=0.00874x elapsed=0:00:32.40    \nframe=   19 fps=0.6 q=47.8 size=       0KiB time=00:00:00.28 bitrate=   1.2kbits/s speed=0.0086x elapsed=0:00:32.94    \nframe=   19 fps=0.6 q=47.8 size=       0KiB time=00:00:00.28 bitrate=   1.2kbits/s speed=0.00844x elapsed=0:00:33.58    \nframe=   19 fps=0.6 q=47.8 size=       0KiB time=00:00:00.28 bitrate=   1.2kbits/s speed=0.00827x elapsed=0:00:34.25    \nframe=   19 fps=0.5 q=47.8 size=       0KiB time=00:00:00.28 bitrate=   1.2kbits/s speed=0.00814x elapsed=0:00:34.80    \nframe=   19 fps=0.5 q=47.8 size=       0KiB time=00:00:00.28 bitrate=   1.2kbits/s speed=0.00802x elapsed=0:00:35.33    \nframe=   19 fps=0.5 q=47.8 size=       0KiB time=00:00:00.28 bitrate=   1.2kbits/s speed=0.00788x elapsed=0:00:35.93    \nframe=   19 fps=0.5 q=47.8 size=       0KiB time=00:00:00.28 bitrate=   1.2kbits/s speed=0.00774x elapsed=0:00:36.58    \nframe=   19 fps=0.5 q=47.8 size=       0KiB time=00:00:00.28 bitrate=   1.2kbits/s speed=0.00764x elapsed=0:00:37.10    \nframe=   20 fps=0.5 q=49.0 size=       0KiB time=00:00:00.30 bitrate=   1.2kbits/s speed=0.00796x elapsed=0:00:37.67    \nframe=   20 fps=0.5 q=49.0 size=       0KiB time=00:00:00.30 bitrate=   1.2kbits/s speed=0.00784x elapsed=0:00:38.24    \nframe=   20 fps=0.5 q=49.0 size=       0KiB time=00:00:00.30 bitrate=   1.2kbits/s speed=0.00772x elapsed=0:00:38.83    \nframe=   21 fps=0.5 q=49.0 size=       0KiB time=00:00:00.31 bitrate=   1.1kbits/s speed=0.00803x elapsed=0:00:39.42    \nframe=   21 fps=0.5 q=49.0 size=       0KiB time=00:00:00.31 bitrate=   1.1kbits/s speed=0.00793x elapsed=0:00:39.95    \nframe=   21 fps=0.5 q=49.0 size=       0KiB time=00:00:00.31 bitrate=   1.1kbits/s speed=0.00782x elapsed=0:00:40.49    \nframe=   22 fps=0.5 q=40.8 size=       0KiB time=00:00:00.33 bitrate=   1.1kbits/s speed=0.00812x elapsed=0:00:41.04    \nframe=   23 fps=0.6 q=47.7 size=       0KiB time=00:00:00.35 bitrate=   1.0kbits/s speed=0.0084x elapsed=0:00:41.64    \nframe=   24 fps=0.6 q=49.0 size=       0KiB time=00:00:00.36 bitrate=   1.0kbits/s speed=0.00869x elapsed=0:00:42.19    \nframe=   26 fps=0.6 q=40.5 size=       0KiB time=00:00:00.40 bitrate=   0.9kbits/s speed=0.00936x elapsed=0:00:42.71    \nframe=   26 fps=0.6 q=40.5 size=       0KiB time=00:00:00.40 bitrate=   0.9kbits/s speed=0.00924x elapsed=0:00:43.28    \nframe=   26 fps=0.6 q=40.5 size=       0KiB time=00:00:00.40 bitrate=   0.9kbits/s speed=0.00913x elapsed=0:00:43.81    \nframe=   27 fps=0.6 q=47.9 size=       0KiB time=00:00:00.41 bitrate=   0.8kbits/s speed=0.00939x elapsed=0:00:44.36    \nframe=   27 fps=0.6 q=47.9 size=       0KiB time=00:00:00.41 bitrate=   0.8kbits/s speed=0.00928x elapsed=0:00:44.89    \nframe=   27 fps=0.6 q=47.9 size=       0KiB time=00:00:00.41 bitrate=   0.8kbits/s speed=0.00917x elapsed=0:00:45.43    \nframe=   28 fps=0.6 q=49.0 size=       0KiB time=00:00:00.43 bitrate=   0.8kbits/s speed=0.00942x elapsed=0:00:45.99    \nframe=   28 fps=0.6 q=49.0 size=       0KiB time=00:00:00.43 bitrate=   0.8kbits/s speed=0.0093x elapsed=0:00:46.58    \nframe=   28 fps=0.6 q=49.0 size=       0KiB time=00:00:00.43 bitrate=   0.8kbits/s speed=0.0092x elapsed=0:00:47.10    \nframe=   28 fps=0.6 q=49.0 size=       0KiB time=00:00:00.43 bitrate=   0.8kbits/s speed=0.00909x elapsed=0:00:47.65    \nframe=   30 fps=0.6 q=46.9 size=       0KiB time=00:00:00.46 bitrate=   0.8kbits/s speed=0.00968x elapsed=0:00:48.19    \nframe=   30 fps=0.6 q=46.9 size=       0KiB time=00:00:00.46 bitrate=   0.8kbits/s speed=0.00958x elapsed=0:00:48.72    \nframe=   30 fps=0.6 q=46.9 size=       0KiB time=00:00:00.46 bitrate=   0.8kbits/s speed=0.00947x elapsed=0:00:49.28    \nframe=   30 fps=0.6 q=46.9 size=       0KiB time=00:00:00.46 bitrate=   0.8kbits/s speed=0.00937x elapsed=0:00:49.79    \nframe=   30 fps=0.6 q=46.9 size=       0KiB time=00:00:00.46 bitrate=   0.8kbits/s speed=0.00927x elapsed=0:00:50.32    \nframe=   30 fps=0.6 q=46.9 size=       0KiB time=00:00:00.46 bitrate=   0.8kbits/s speed=0.00917x elapsed=0:00:50.86    \nframe=   31 fps=0.6 q=48.0 size=       0KiB time=00:00:00.48 bitrate=   0.7kbits/s speed=0.0094x elapsed=0:00:51.40    \nframe=   31 fps=0.6 q=48.0 size=       0KiB time=00:00:00.48 bitrate=   0.7kbits/s speed=0.0093x elapsed=0:00:51.99    \nframe=   31 fps=0.6 q=48.0 size=       0KiB time=00:00:00.48 bitrate=   0.7kbits/s speed=0.0092x elapsed=0:00:52.56    \nframe=   31 fps=0.6 q=48.0 size=       0KiB time=00:00:00.48 bitrate=   0.7kbits/s speed=0.0091x elapsed=0:00:53.10    \nframe=   32 fps=0.6 q=48.0 size=       0KiB time=00:00:00.50 bitrate=   0.7kbits/s speed=0.00932x elapsed=0:00:53.65    \nframe=   32 fps=0.6 q=48.0 size=       0KiB time=00:00:00.50 bitrate=   0.7kbits/s speed=0.00922x elapsed=0:00:54.23    \nframe=   32 fps=0.6 q=48.0 size=       0KiB time=00:00:00.50 bitrate=   0.7kbits/s speed=0.00913x elapsed=0:00:54.76    \nframe=   32 fps=0.6 q=48.0 size=       0KiB time=00:00:00.50 bitrate=   0.7kbits/s speed=0.00904x elapsed=0:00:55.29    \nframe=   33 fps=0.6 q=40.4 size=       0KiB time=00:00:00.51 bitrate=   0.7kbits/s speed=0.00925x elapsed=0:00:55.82    \nframe=   33 fps=0.6 q=40.4 size=       0KiB time=00:00:00.51 bitrate=   0.7kbits/s speed=0.00917x elapsed=0:00:56.36    \nframe=   34 fps=0.6 q=46.8 size=       0KiB time=00:00:00.53 bitrate=   0.7kbits/s speed=0.00937x elapsed=0:00:56.94    \nframe=   34 fps=0.6 q=46.8 size=       0KiB time=00:00:00.53 bitrate=   0.7kbits/s speed=0.00928x elapsed=0:00:57.47    \nframe=   34 fps=0.6 q=46.8 size=       0KiB time=00:00:00.53 bitrate=   0.7kbits/s speed=0.00918x elapsed=0:00:58.08    \nframe=   34 fps=0.6 q=46.8 size=       0KiB time=00:00:00.53 bitrate=   0.7kbits/s speed=0.0091x elapsed=0:00:58.62    \nframe=   35 fps=0.6 q=47.0 size=       0KiB time=00:00:00.55 bitrate=   0.6kbits/s speed=0.0093x elapsed=0:00:59.15    \nframe=   36 fps=0.6 q=47.0 size=       0KiB time=00:00:00.56 bitrate=   0.6kbits/s speed=0.00949x elapsed=0:00:59.71    \nframe=   37 fps=0.6 q=40.0 size=       0KiB time=00:00:00.58 bitrate=   0.6kbits/s speed=0.00968x elapsed=0:01:00.24    \nframe=   38 fps=0.6 q=45.5 size=       0KiB time=00:00:00.60 bitrate=   0.6kbits/s speed=0.00987x elapsed=0:01:00.79    \nframe=   38 fps=0.6 q=45.5 size=       0KiB time=00:00:00.60 bitrate=   0.6kbits/s speed=0.00978x elapsed=0:01:01.35    \nframe=   38 fps=0.6 q=45.5 size=       0KiB time=00:00:00.60 bitrate=   0.6kbits/s speed=0.00969x elapsed=0:01:01.91    \nframe=   38 fps=0.6 q=45.5 size=       0KiB time=00:00:00.60 bitrate=   0.6kbits/s speed=0.00961x elapsed=0:01:02.43    \nframe=   38 fps=0.6 q=45.5 size=       0KiB time=00:00:00.60 bitrate=   0.6kbits/s speed=0.00952x elapsed=0:01:03.01    \nframe=   38 fps=0.6 q=45.5 size=       0KiB time=00:00:00.60 bitrate=   0.6kbits/s speed=0.00944x elapsed=0:01:03.59    \nframe=   38 fps=0.6 q=45.5 size=       0KiB time=00:00:00.60 bitrate=   0.6kbits/s speed=0.00934x elapsed=0:01:04.20    \nframe=   38 fps=0.6 q=45.5 size=       0KiB time=00:00:00.60 bitrate=   0.6kbits/s speed=0.00925x elapsed=0:01:04.85    \nframe=   38 fps=0.6 q=45.5 size=       0KiB time=00:00:00.60 bitrate=   0.6kbits/s speed=0.00917x elapsed=0:01:05.44    \nframe=   38 fps=0.6 q=45.5 size=       0KiB time=00:00:00.60 bitrate=   0.6kbits/s speed=0.00909x elapsed=0:01:06.03    \nframe=   38 fps=0.6 q=45.5 size=       0KiB time=00:00:00.60 bitrate=   0.6kbits/s speed=0.00901x elapsed=0:01:06.61    \nframe=   38 fps=0.6 q=45.5 size=       0KiB time=00:00:00.60 bitrate=   0.6kbits/s speed=0.00893x elapsed=0:01:07.15    \nframe=   38 fps=0.6 q=45.5 size=       0KiB time=00:00:00.60 bitrate=   0.6kbits/s speed=0.00885x elapsed=0:01:07.77    \nframe=   38 fps=0.6 q=45.5 size=       0KiB time=00:00:00.60 bitrate=   0.6kbits/s speed=0.00878x elapsed=0:01:08.37    \nframe=   39 fps=0.6 q=47.0 size=       0KiB time=00:00:00.61 bitrate=   0.6kbits/s speed=0.00895x elapsed=0:01:08.89    \nframe=   39 fps=0.6 q=47.0 size=       0KiB time=00:00:00.61 bitrate=   0.6kbits/s speed=0.00888x elapsed=0:01:09.41    \nframe=   40 fps=0.6 q=47.0 size=       0KiB time=00:00:00.63 bitrate=   0.6kbits/s speed=0.00906x elapsed=0:01:09.94    \nframe=   40 fps=0.6 q=47.0 size=       0KiB time=00:00:00.63 bitrate=   0.6kbits/s speed=0.00899x elapsed=0:01:10.48    \nframe=   40 fps=0.6 q=47.0 size=       0KiB time=00:00:00.63 bitrate=   0.6kbits/s speed=0.00892x elapsed=0:01:11.01    \nframe=   40 fps=0.6 q=47.0 size=       0KiB time=00:00:00.63 bitrate=   0.6kbits/s speed=0.00885x elapsed=0:01:11.59    \nframe=   41 fps=0.6 q=40.0 size=       0KiB time=00:00:00.65 bitrate=   0.5kbits/s speed=0.00901x elapsed=0:01:12.11    \nframe=   41 fps=0.6 q=40.0 size=       0KiB time=00:00:00.65 bitrate=   0.5kbits/s speed=0.00895x elapsed=0:01:12.64    \nframe=   41 fps=0.6 q=40.0 size=       0KiB time=00:00:00.65 bitrate=   0.5kbits/s speed=0.00888x elapsed=0:01:13.22    \nframe=   41 fps=0.6 q=40.0 size=       0KiB time=00:00:00.65 bitrate=   0.5kbits/s speed=0.00881x elapsed=0:01:13.77    \nframe=   41 fps=0.6 q=40.0 size=       0KiB time=00:00:00.65 bitrate=   0.5kbits/s speed=0.00875x elapsed=0:01:14.30    \nframe=   42 fps=0.6 q=46.0 size=       0KiB time=00:00:00.66 bitrate=   0.5kbits/s speed=0.00891x elapsed=0:01:14.83    \nframe=   43 fps=0.6 q=47.0 size=       0KiB time=00:00:00.68 bitrate=   0.5kbits/s speed=0.00907x elapsed=0:01:15.33    \nframe=   43 fps=0.6 q=47.0 size=       0KiB time=00:00:00.68 bitrate=   0.5kbits/s speed=0.00901x elapsed=0:01:15.86    \nframe=   44 fps=0.6 q=39.9 size=       0KiB time=00:00:00.70 bitrate=   0.5kbits/s speed=0.00916x elapsed=0:01:16.39    \nframe=   45 fps=0.6 q=45.6 size=       0KiB time=00:00:00.71 bitrate=   0.5kbits/s speed=0.00932x elapsed=0:01:16.91    \nframe=   45 fps=0.6 q=45.6 size=       0KiB time=00:00:00.71 bitrate=   0.5kbits/s speed=0.00925x elapsed=0:01:17.47    \nframe=   45 fps=0.6 q=45.6 size=       0KiB time=00:00:00.71 bitrate=   0.5kbits/s speed=0.00919x elapsed=0:01:17.98    \nframe=   46 fps=0.6 q=46.0 size=       0KiB time=00:00:00.73 bitrate=   0.5kbits/s speed=0.00934x elapsed=0:01:18.52    \nframe=   47 fps=0.6 q=46.1 size=       0KiB time=00:00:00.75 bitrate=   0.5kbits/s speed=0.00949x elapsed=0:01:19.05    \nframe=   47 fps=0.6 q=46.1 size=       0KiB time=00:00:00.75 bitrate=   0.5kbits/s speed=0.00942x elapsed=0:01:19.58    \nframe=   47 fps=0.6 q=46.1 size=       0KiB time=00:00:00.75 bitrate=   0.5kbits/s speed=0.00936x elapsed=0:01:20.13    \nframe=   48 fps=0.6 q=39.8 size=       0KiB time=00:00:00.76 bitrate=   0.5kbits/s speed=0.00951x elapsed=0:01:20.65    \nframe=   49 fps=0.6 q=45.4 size=       0KiB time=00:00:00.78 bitrate=   0.4kbits/s speed=0.00965x elapsed=0:01:21.19    \nframe=   49 fps=0.6 q=45.4 size=       0KiB time=00:00:00.78 bitrate=   0.4kbits/s speed=0.00958x elapsed=0:01:21.73    \nframe=   50 fps=0.6 q=46.0 size=       0KiB time=00:00:00.80 bitrate=   0.4kbits/s speed=0.00973x elapsed=0:01:22.25    \nframe=   51 fps=0.6 q=46.0 size=       0KiB time=00:00:00.81 bitrate=   0.4kbits/s speed=0.00987x elapsed=0:01:22.76    \nframe=   51 fps=0.6 q=46.0 size=       0KiB time=00:00:00.81 bitrate=   0.4kbits/s speed=0.0098x elapsed=0:01:23.30    \nframe=   52 fps=0.6 q=39.6 size=       0KiB time=00:00:00.83 bitrate=   0.4kbits/s speed=0.00994x elapsed=0:01:23.82    \nframe=   52 fps=0.6 q=39.6 size=       0KiB time=00:00:00.83 bitrate=   0.4kbits/s speed=0.00988x elapsed=0:01:24.35    \nframe=   52 fps=0.6 q=39.6 size=       0KiB time=00:00:00.83 bitrate=   0.4kbits/s speed=0.00982x elapsed=0:01:24.86    \nframe=   52 fps=0.6 q=39.6 size=       0KiB time=00:00:00.83 bitrate=   0.4kbits/s speed=0.00975x elapsed=0:01:25.43    \nframe=   52 fps=0.6 q=39.6 size=       0KiB time=00:00:00.83 bitrate=   0.4kbits/s speed=0.00969x elapsed=0:01:25.98    \nframe=   53 fps=0.6 q=44.8 size=       0KiB time=00:00:00.85 bitrate=   0.4kbits/s speed=0.00983x elapsed=0:01:26.51    \nframe=   54 fps=0.6 q=46.0 size=       0KiB time=00:00:00.86 bitrate=   0.4kbits/s speed=0.00996x elapsed=0:01:27.02    \nframe=   54 fps=0.6 q=46.0 size=       0KiB time=00:00:00.86 bitrate=   0.4kbits/s speed=0.0099x elapsed=0:01:27.54    \nframe=   55 fps=0.6 q=39.8 size=       0KiB time=00:00:00.88 bitrate=   0.4kbits/s speed=0.01x elapsed=0:01:28.09    \nframe=   56 fps=0.6 q=45.5 size=     256KiB time=00:00:00.90 bitrate=2330.6kbits/s speed=0.0102x elapsed=0:01:28.60    \nframe=   56 fps=0.6 q=45.5 size=     256KiB time=00:00:00.90 bitrate=2330.6kbits/s speed=0.0101x elapsed=0:01:29.13    \nframe=   56 fps=0.6 q=45.5 size=     256KiB time=00:00:00.90 bitrate=2330.6kbits/s speed=0.01x elapsed=0:01:29.67    \nframe=   56 fps=0.6 q=45.5 size=     256KiB time=00:00:00.90 bitrate=2330.6kbits/s speed=0.00998x elapsed=0:01:30.20    \nframe=   57 fps=0.6 q=46.0 size=     256KiB time=00:00:00.91 bitrate=2288.2kbits/s speed=0.0101x elapsed=0:01:30.74    \nframe=   59 fps=0.6 q=39.3 size=     256KiB time=00:00:00.95 bitrate=2207.9kbits/s speed=0.0104x elapsed=0:01:31.28    \nframe=   60 fps=0.7 q=44.5 size=     256KiB time=00:00:00.96 bitrate=2169.8kbits/s speed=0.0105x elapsed=0:01:31.81    \nframe=   60 fps=0.6 q=44.5 size=     256KiB time=00:00:00.96 bitrate=2169.8kbits/s speed=0.0105x elapsed=0:01:32.33    \nframe=   60 fps=0.6 q=44.5 size=     256KiB time=00:00:00.96 bitrate=2169.8kbits/s speed=0.0104x elapsed=0:01:32.87    \nframe=   60 fps=0.6 q=44.5 size=     256KiB time=00:00:00.96 bitrate=2169.8kbits/s speed=0.0103x elapsed=0:01:33.44    \nframe=   61 fps=0.6 q=45.1 size=     256KiB time=00:00:00.98 bitrate=2133.1kbits/s speed=0.0105x elapsed=0:01:33.99    \nframe=   62 fps=0.7 q=46.0 size=     256KiB time=00:00:01.00 bitrate=2097.5kbits/s speed=0.0106x elapsed=0:01:34.53    \nframe=   63 fps=0.7 q=39.4 size=     256KiB time=00:00:01.01 bitrate=2063.1kbits/s speed=0.0107x elapsed=0:01:35.06    \nframe=   63 fps=0.7 q=39.4 size=     256KiB time=00:00:01.01 bitrate=2063.1kbits/s speed=0.0106x elapsed=0:01:35.59    \nframe=   64 fps=0.7 q=44.5 size=     256KiB time=00:00:01.03 bitrate=2029.8kbits/s speed=0.0108x elapsed=0:01:36.11    \nframe=   64 fps=0.7 q=44.5 size=     256KiB time=00:00:01.03 bitrate=2029.8kbits/s speed=0.0107x elapsed=0:01:36.65    \nframe=   64 fps=0.7 q=44.5 size=     256KiB time=00:00:01.03 bitrate=2029.8kbits/s speed=0.0106x elapsed=0:01:37.20    \nframe=   64 fps=0.7 q=44.5 size=     256KiB time=00:00:01.03 bitrate=2029.8kbits/s speed=0.0106x elapsed=0:01:37.71    \nframe=   64 fps=0.7 q=44.5 size=     256KiB time=00:00:01.03 bitrate=2029.8kbits/s speed=0.0105x elapsed=0:01:38.26    \nframe=   65 fps=0.7 q=46.0 size=     256KiB time=00:00:01.05 bitrate=1997.6kbits/s speed=0.0106x elapsed=0:01:38.81    \nframe=   65 fps=0.7 q=46.0 size=     256KiB time=00:00:01.05 bitrate=1997.6kbits/s speed=0.0106x elapsed=0:01:39.35    \nframe=   65 fps=0.7 q=46.0 size=     256KiB time=00:00:01.05 bitrate=1997.6kbits/s speed=0.0105x elapsed=0:01:39.89    \nframe=   66 fps=0.7 q=45.0 size=     256KiB time=00:00:01.06 bitrate=1966.4kbits/s speed=0.0106x elapsed=0:01:40.40    \nframe=   66 fps=0.7 q=45.0 size=     256KiB time=00:00:01.06 bitrate=1966.4kbits/s speed=0.0106x elapsed=0:01:40.94    \nframe=   67 fps=0.7 q=38.9 size=     256KiB time=00:00:01.08 bitrate=1936.2kbits/s speed=0.0107x elapsed=0:01:41.47    \nframe=   67 fps=0.7 q=38.9 size=     256KiB time=00:00:01.08 bitrate=1936.2kbits/s speed=0.0106x elapsed=0:01:42.01    \nframe=   67 fps=0.7 q=38.9 size=     256KiB time=00:00:01.08 bitrate=1936.2kbits/s speed=0.0106x elapsed=0:01:42.55    \nframe=   67 fps=0.6 q=38.9 size=     256KiB time=00:00:01.08 bitrate=1936.2kbits/s speed=0.0105x elapsed=0:01:43.08    \nframe=   67 fps=0.6 q=38.9 size=     256KiB time=00:00:01.08 bitrate=1936.2kbits/s speed=0.0105x elapsed=0:01:43.62    \nframe=   68 fps=0.7 q=44.7 size=     256KiB time=00:00:01.10 bitrate=1906.8kbits/s speed=0.0106x elapsed=0:01:44.15    \nframe=   68 fps=0.6 q=44.7 size=     256KiB time=00:00:01.10 bitrate=1906.8kbits/s speed=0.0105x elapsed=0:01:44.71    \nframe=   69 fps=0.7 q=45.0 size=     256KiB time=00:00:01.11 bitrate=1878.4kbits/s speed=0.0106x elapsed=0:01:45.25    \nframe=   69 fps=0.7 q=45.0 size=     256KiB time=00:00:01.11 bitrate=1878.4kbits/s speed=0.0106x elapsed=0:01:45.79    \nframe=   71 fps=0.7 q=44.3 size=     256KiB time=00:00:01.15 bitrate=1823.9kbits/s speed=0.0108x elapsed=0:01:46.32    \nframe=   71 fps=0.7 q=44.3 size=     256KiB time=00:00:01.15 bitrate=1823.9kbits/s speed=0.0108x elapsed=0:01:46.86    \nframe=   71 fps=0.7 q=44.3 size=     256KiB time=00:00:01.15 bitrate=1823.9kbits/s speed=0.0107x elapsed=0:01:47.39    \nframe=   71 fps=0.7 q=44.3 size=     256KiB time=00:00:01.15 bitrate=1823.9kbits/s speed=0.0107x elapsed=0:01:47.93    \nframe=   72 fps=0.7 q=46.0 size=     256KiB time=00:00:01.16 bitrate=1797.9kbits/s speed=0.0108x elapsed=0:01:48.44    \nframe=   72 fps=0.7 q=46.0 size=     256KiB time=00:00:01.16 bitrate=1797.9kbits/s speed=0.0107x elapsed=0:01:48.99    \nframe=   73 fps=0.7 q=45.0 size=     256KiB time=00:00:01.18 bitrate=1772.5kbits/s speed=0.0108x elapsed=0:01:49.53    \nframe=   75 fps=0.7 q=44.3 size=     256KiB time=00:00:01.20 bitrate=1747.9kbits/s speed=0.0109x elapsed=0:01:50.05    \nframe=   75 fps=0.7 q=44.3 size=     256KiB time=00:00:01.21 bitrate=1724.0kbits/s speed=0.011x elapsed=0:01:50.58    \nframe=   75 fps=0.7 q=44.3 size=     256KiB time=00:00:01.21 bitrate=1724.0kbits/s speed=0.0109x elapsed=0:01:51.12    \nframe=   75 fps=0.7 q=44.3 size=     256KiB time=00:00:01.21 bitrate=1724.0kbits/s speed=0.0109x elapsed=0:01:51.65    \nframe=   77 fps=0.7 q=45.0 size=     256KiB time=00:00:01.25 bitrate=1678.0kbits/s speed=0.0111x elapsed=0:01:52.20    \nframe=   78 fps=0.7 q=38.5 size=     256KiB time=00:00:01.26 bitrate=1655.9kbits/s speed=0.0112x elapsed=0:01:52.72    \nframe=   78 fps=0.7 q=38.5 size=     256KiB time=00:00:01.26 bitrate=1655.9kbits/s speed=0.0112x elapsed=0:01:53.24    \nframe=   79 fps=0.7 q=43.8 size=     256KiB time=00:00:01.28 bitrate=1634.4kbits/s speed=0.0113x elapsed=0:01:53.79    \nframe=   79 fps=0.7 q=43.8 size=     256KiB time=00:00:01.28 bitrate=1634.4kbits/s speed=0.0112x elapsed=0:01:54.33    \nframe=   82 fps=0.7 q=44.2 size=     256KiB time=00:00:01.33 bitrate=1573.1kbits/s speed=0.0116x elapsed=0:01:54.85    \nframe=   82 fps=0.7 q=44.2 size=     256KiB time=00:00:01.33 bitrate=1573.1kbits/s speed=0.0116x elapsed=0:01:55.38    \nframe=   82 fps=0.7 q=44.2 size=     256KiB time=00:00:01.33 bitrate=1573.1kbits/s speed=0.0115x elapsed=0:01:55.91    \nframe=   82 fps=0.7 q=44.2 size=     256KiB time=00:00:01.33 bitrate=1573.1kbits/s speed=0.0114x elapsed=0:01:56.46    \nframe=   82 fps=0.7 q=44.2 size=     256KiB time=00:00:01.33 bitrate=1573.1kbits/s speed=0.0114x elapsed=0:01:56.98    \nframe=   82 fps=0.7 q=44.2 size=     256KiB time=00:00:01.33 bitrate=1573.1kbits/s speed=0.0113x elapsed=0:01:57.53    \nframe=   83 fps=0.7 q=45.1 size=     256KiB time=00:00:01.35 bitrate=1553.7kbits/s speed=0.0114x elapsed=0:01:58.10    \nframe=   83 fps=0.7 q=45.1 size=     256KiB time=00:00:01.35 bitrate=1553.7kbits/s speed=0.0114x elapsed=0:01:58.62    \nframe=   85 fps=0.7 q=38.8 size=     256KiB time=00:00:01.38 bitrate=1516.3kbits/s speed=0.0116x elapsed=0:01:59.15    \nframe=   86 fps=0.7 q=44.3 size=     256KiB time=00:00:01.40 bitrate=1498.2kbits/s speed=0.0117x elapsed=0:01:59.68    \nframe=   86 fps=0.7 q=44.3 size=     256KiB time=00:00:01.40 bitrate=1498.2kbits/s speed=0.0116x elapsed=0:02:00.20    \nframe=   87 fps=0.7 q=45.0 size=     256KiB time=00:00:01.41 bitrate=1480.6kbits/s speed=0.0117x elapsed=0:02:00.72    \nframe=   87 fps=0.7 q=45.0 size=     256KiB time=00:00:01.41 bitrate=1480.6kbits/s speed=0.0117x elapsed=0:02:01.25    \nframe=   88 fps=0.7 q=45.0 size=     256KiB time=00:00:01.43 bitrate=1463.4kbits/s speed=0.0118x elapsed=0:02:01.77    \nframe=   89 fps=0.7 q=38.5 size=     256KiB time=00:00:01.45 bitrate=1446.6kbits/s speed=0.0119x elapsed=0:02:02.28    \nframe=   89 fps=0.7 q=38.5 size=     256KiB time=00:00:01.45 bitrate=1446.6kbits/s speed=0.0118x elapsed=0:02:02.79    \nframe=   89 fps=0.7 q=38.5 size=     256KiB time=00:00:01.45 bitrate=1446.6kbits/s speed=0.0118x elapsed=0:02:03.33    \nframe=   90 fps=0.7 q=43.7 size=     256KiB time=00:00:01.46 bitrate=1430.1kbits/s speed=0.0118x elapsed=0:02:03.86    \nframe=   91 fps=0.7 q=45.0 size=     256KiB time=00:00:01.48 bitrate=1414.0kbits/s speed=0.0119x elapsed=0:02:04.40    \nframe=   92 fps=0.7 q=38.5 size=     256KiB time=00:00:01.50 bitrate=1398.3kbits/s speed=0.012x elapsed=0:02:04.94    \nframe=   93 fps=0.7 q=43.2 size=     256KiB time=00:00:01.51 bitrate=1383.0kbits/s speed=0.0121x elapsed=0:02:05.49    \nframe=   93 fps=0.7 q=43.2 size=     256KiB time=00:00:01.51 bitrate=1383.0kbits/s speed=0.012x elapsed=0:02:06.01    \nframe=   93 fps=0.7 q=43.2 size=     256KiB time=00:00:01.51 bitrate=1383.0kbits/s speed=0.012x elapsed=0:02:06.53    \nframe=   93 fps=0.7 q=43.2 size=     256KiB time=00:00:01.51 bitrate=1383.0kbits/s speed=0.0119x elapsed=0:02:07.05    \nframe=   93 fps=0.7 q=43.2 size=     256KiB time=00:00:01.51 bitrate=1383.0kbits/s speed=0.0119x elapsed=0:02:07.58    \nframe=   94 fps=0.7 q=44.0 size=     256KiB time=00:00:01.53 bitrate=1367.9kbits/s speed=0.012x elapsed=0:02:08.16    \nframe=   94 fps=0.7 q=44.0 size=     256KiB time=00:00:01.53 bitrate=1367.9kbits/s speed=0.0119x elapsed=0:02:08.68    \nframe=   95 fps=0.7 q=44.0 size=     256KiB time=00:00:01.55 bitrate=1353.2kbits/s speed=0.012x elapsed=0:02:09.21    \nframe=   96 fps=0.7 q=38.0 size=     256KiB time=00:00:01.56 bitrate=1338.8kbits/s speed=0.0121x elapsed=0:02:09.73    \nframe=   97 fps=0.7 q=43.2 size=     256KiB time=00:00:01.58 bitrate=1324.7kbits/s speed=0.0122x elapsed=0:02:10.27    \nframe=   97 fps=0.7 q=43.2 size=     256KiB time=00:00:01.58 bitrate=1324.7kbits/s speed=0.0121x elapsed=0:02:10.79    \nframe=   97 fps=0.7 q=43.2 size=     256KiB time=00:00:01.58 bitrate=1324.7kbits/s speed=0.0121x elapsed=0:02:11.35    \nframe=   97 fps=0.7 q=43.2 size=     256KiB time=00:00:01.58 bitrate=1324.7kbits/s speed=0.012x elapsed=0:02:11.89    \nframe=   98 fps=0.7 q=44.0 size=     256KiB time=00:00:01.60 bitrate=1310.9kbits/s speed=0.0121x elapsed=0:02:12.41    \nframe=   99 fps=0.7 q=45.0 size=     256KiB time=00:00:01.61 bitrate=1297.4kbits/s speed=0.0122x elapsed=0:02:12.93    \nframe=  100 fps=0.7 q=38.2 size=     256KiB time=00:00:01.63 bitrate=1284.2kbits/s speed=0.0122x elapsed=0:02:13.45    \nframe=  100 fps=0.7 q=38.2 size=     256KiB time=00:00:01.63 bitrate=1284.2kbits/s speed=0.0122x elapsed=0:02:14.01    \nframe=  100 fps=0.7 q=38.2 size=     256KiB time=00:00:01.63 bitrate=1284.2kbits/s speed=0.0121x elapsed=0:02:14.58    \nframe=  101 fps=0.7 q=43.3 size=     256KiB time=00:00:01.65 bitrate=1271.2kbits/s speed=0.0122x elapsed=0:02:15.15    \nframe=  101 fps=0.7 q=43.3 size=     256KiB time=00:00:01.65 bitrate=1271.2kbits/s speed=0.0122x elapsed=0:02:15.67    \nframe=  101 fps=0.7 q=43.3 size=     256KiB time=00:00:01.65 bitrate=1271.2kbits/s speed=0.0121x elapsed=0:02:16.21    \nframe=  101 fps=0.7 q=43.3 size=     256KiB time=00:00:01.65 bitrate=1271.2kbits/s speed=0.0121x elapsed=0:02:16.78    \nframe=  101 fps=0.7 q=43.3 size=     256KiB time=00:00:01.65 bitrate=1271.2kbits/s speed=0.012x elapsed=0:02:17.36    \nframe=  101 fps=0.7 q=43.3 size=     256KiB time=00:00:01.65 bitrate=1271.2kbits/s speed=0.012x elapsed=0:02:17.98    \nframe=  101 fps=0.7 q=43.3 size=     256KiB time=00:00:01.65 bitrate=1271.2kbits/s speed=0.0119x elapsed=0:02:18.60    \nframe=  101 fps=0.7 q=43.3 size=     256KiB time=00:00:01.65 bitrate=1271.2kbits/s speed=0.0118x elapsed=0:02:19.25    \nframe=  101 fps=0.7 q=43.3 size=     256KiB time=00:00:01.65 bitrate=1271.2kbits/s speed=0.0118x elapsed=0:02:19.93    \nframe=  101 fps=0.7 q=43.3 size=     256KiB time=00:00:01.65 bitrate=1271.2kbits/s speed=0.0117x elapsed=0:02:20.60    \nframe=  101 fps=0.7 q=43.3 size=     256KiB time=00:00:01.65 bitrate=1271.2kbits/s speed=0.0117x elapsed=0:02:21.22    \nframe=  101 fps=0.7 q=43.3 size=     256KiB time=00:00:01.65 bitrate=1271.2kbits/s speed=0.0116x elapsed=0:02:21.80    \nframe=  101 fps=0.7 q=43.3 size=     256KiB time=00:00:01.65 bitrate=1271.2kbits/s speed=0.0116x elapsed=0:02:22.39    \nframe=  101 fps=0.7 q=43.3 size=     256KiB time=00:00:01.65 bitrate=1271.2kbits/s speed=0.0115x elapsed=0:02:23.04    \nframe=  101 fps=0.7 q=43.3 size=     256KiB time=00:00:01.65 bitrate=1271.2kbits/s speed=0.0115x elapsed=0:02:23.62    \nframe=  101 fps=0.7 q=43.3 size=     256KiB time=00:00:01.65 bitrate=1271.2kbits/s speed=0.0114x elapsed=0:02:24.20    \nframe=  102 fps=0.7 q=44.9 size=     256KiB time=00:00:01.66 bitrate=1258.5kbits/s speed=0.0115x elapsed=0:02:24.72    \nframe=  102 fps=0.7 q=44.9 size=     256KiB time=00:00:01.66 bitrate=1258.5kbits/s speed=0.0115x elapsed=0:02:25.27    \nframe=  102 fps=0.7 q=44.9 size=     256KiB time=00:00:01.66 bitrate=1258.5kbits/s speed=0.0114x elapsed=0:02:25.82    \nframe=  102 fps=0.7 q=44.9 size=     256KiB time=00:00:01.66 bitrate=1258.5kbits/s speed=0.0114x elapsed=0:02:26.40    \nframe=  102 fps=0.7 q=44.9 size=     256KiB time=00:00:01.66 bitrate=1258.5kbits/s speed=0.0113x elapsed=0:02:26.95    \nframe=  103 fps=0.7 q=43.9 size=     256KiB time=00:00:01.68 bitrate=1246.0kbits/s speed=0.0114x elapsed=0:02:27.51    \nframe=  103 fps=0.7 q=43.9 size=     256KiB time=00:00:01.68 bitrate=1246.0kbits/s speed=0.0114x elapsed=0:02:28.05    \nframe=  105 fps=0.7 q=43.3 size=     256KiB time=00:00:01.71 bitrate=1221.8kbits/s speed=0.0116x elapsed=0:02:28.59    \nframe=  105 fps=0.7 q=43.3 size=     256KiB time=00:00:01.71 bitrate=1221.8kbits/s speed=0.0115x elapsed=0:02:29.11    \nframe=  105 fps=0.7 q=43.3 size=     256KiB time=00:00:01.71 bitrate=1221.8kbits/s speed=0.0115x elapsed=0:02:29.63    \nframe=  105 fps=0.7 q=43.3 size=     256KiB time=00:00:01.71 bitrate=1221.8kbits/s speed=0.0114x elapsed=0:02:30.15    \nframe=  106 fps=0.7 q=44.0 size=     256KiB time=00:00:01.73 bitrate=1210.1kbits/s speed=0.0115x elapsed=0:02:30.66    \nframe=  106 fps=0.7 q=44.0 size=     256KiB time=00:00:01.73 bitrate=1210.1kbits/s speed=0.0115x elapsed=0:02:31.18    \nframe=  106 fps=0.7 q=44.0 size=     256KiB time=00:00:01.73 bitrate=1210.1kbits/s speed=0.0114x elapsed=0:02:31.71    \nframe=  108 fps=0.7 q=38.1 size=     256KiB time=00:00:01.76 bitrate=1187.3kbits/s speed=0.0116x elapsed=0:02:32.22    \nframe=  108 fps=0.7 q=38.1 size=     256KiB time=00:00:01.76 bitrate=1187.3kbits/s speed=0.0116x elapsed=0:02:32.76    \nframe=  109 fps=0.7 q=42.8 size=     512KiB time=00:00:01.78 bitrate=2352.1kbits/s speed=0.0116x elapsed=0:02:33.28    \nframe=  109 fps=0.7 q=42.8 size=     512KiB time=00:00:01.78 bitrate=2352.1kbits/s speed=0.0116x elapsed=0:02:33.81    \nframe=  109 fps=0.7 q=42.8 size=     512KiB time=00:00:01.78 bitrate=2352.1kbits/s speed=0.0116x elapsed=0:02:34.36    \nframe=  109 fps=0.7 q=42.8 size=     512KiB time=00:00:01.78 bitrate=2352.1kbits/s speed=0.0115x elapsed=0:02:34.93    \nframe=  110 fps=0.7 q=44.0 size=     512KiB time=00:00:01.80 bitrate=2330.4kbits/s speed=0.0116x elapsed=0:02:35.50    \nframe=  111 fps=0.7 q=43.0 size=     512KiB time=00:00:01.80 bitrate=2330.4kbits/s speed=0.0115x elapsed=0:02:36.09    \nframe=  111 fps=0.7 q=43.0 size=     512KiB time=00:00:01.81 bitrate=2309.0kbits/s speed=0.0116x elapsed=0:02:36.68    \nframe=  112 fps=0.7 q=38.0 size=     512KiB time=00:00:01.83 bitrate=2288.0kbits/s speed=0.0117x elapsed=0:02:37.21    \nframe=  113 fps=0.7 q=43.1 size=     512KiB time=00:00:01.85 bitrate=2267.4kbits/s speed=0.0117x elapsed=0:02:37.78    \nframe=  113 fps=0.7 q=43.1 size=     512KiB time=00:00:01.85 bitrate=2267.4kbits/s speed=0.0117x elapsed=0:02:38.34    \nframe=  113 fps=0.7 q=43.1 size=     512KiB time=00:00:01.85 bitrate=2267.4kbits/s speed=0.0116x elapsed=0:02:38.92    \nframe=  113 fps=0.7 q=43.1 size=     512KiB time=00:00:01.85 bitrate=2267.4kbits/s speed=0.0116x elapsed=0:02:39.48    \nframe=  113 fps=0.7 q=43.1 size=     512KiB time=00:00:01.85 bitrate=2267.4kbits/s speed=0.0116x elapsed=0:02:40.01    \nframe=  114 fps=0.7 q=44.0 size=     512KiB time=00:00:01.86 bitrate=2247.1kbits/s speed=0.0116x elapsed=0:02:40.53    \nframe=  114 fps=0.7 q=44.0 size=     512KiB time=00:00:01.86 bitrate=2247.1kbits/s speed=0.0116x elapsed=0:02:41.07    \nframe=  115 fps=0.7 q=43.1 size=     512KiB time=00:00:01.88 bitrate=2227.3kbits/s speed=0.0117x elapsed=0:02:41.61    \nframe=  115 fps=0.7 q=43.1 size=     512KiB time=00:00:01.88 bitrate=2227.3kbits/s speed=0.0116x elapsed=0:02:42.13    \nframe=  115 fps=0.7 q=43.1 size=     512KiB time=00:00:01.88 bitrate=2227.3kbits/s speed=0.0116x elapsed=0:02:42.75    \nframe=  115 fps=0.7 q=43.1 size=     512KiB time=00:00:01.88 bitrate=2227.3kbits/s speed=0.0115x elapsed=0:02:43.38    \nframe=  115 fps=0.7 q=43.1 size=     512KiB time=00:00:01.88 bitrate=2227.3kbits/s speed=0.0115x elapsed=0:02:43.95    \nframe=  115 fps=0.7 q=43.1 size=     512KiB time=00:00:01.88 bitrate=2227.3kbits/s speed=0.0114x elapsed=0:02:44.57    \nframe=  115 fps=0.7 q=43.1 size=     512KiB time=00:00:01.88 bitrate=2227.3kbits/s speed=0.0114x elapsed=0:02:45.13    \nframe=  116 fps=0.7 q=37.9 size=     512KiB time=00:00:01.90 bitrate=2207.7kbits/s speed=0.0115x elapsed=0:02:45.66    \nframe=  116 fps=0.7 q=37.9 size=     512KiB time=00:00:01.90 bitrate=2207.7kbits/s speed=0.0114x elapsed=0:02:46.20    \nframe=  116 fps=0.7 q=37.9 size=     512KiB time=00:00:01.90 bitrate=2207.7kbits/s speed=0.0114x elapsed=0:02:46.74    \nframe=  117 fps=0.7 q=43.2 size=     512KiB time=00:00:01.91 bitrate=2188.5kbits/s speed=0.0115x elapsed=0:02:47.28    \nframe=  117 fps=0.7 q=43.2 size=     512KiB time=00:00:01.91 bitrate=2188.5kbits/s speed=0.0114x elapsed=0:02:47.79    \nframe=  118 fps=0.7 q=43.9 size=     512KiB time=00:00:01.93 bitrate=2169.7kbits/s speed=0.0115x elapsed=0:02:48.33    \nframe=  118 fps=0.7 q=43.9 size=     512KiB time=00:00:01.93 bitrate=2169.7kbits/s speed=0.0114x elapsed=0:02:48.86    \nframe=  118 fps=0.7 q=43.9 size=     512KiB time=00:00:01.93 bitrate=2169.7kbits/s speed=0.0114x elapsed=0:02:49.40    \nframe=  118 fps=0.7 q=43.9 size=     512KiB time=00:00:01.93 bitrate=2169.7kbits/s speed=0.0114x elapsed=0:02:49.95    \nframe=  118 fps=0.7 q=43.9 size=     512KiB time=00:00:01.93 bitrate=2169.7kbits/s speed=0.0113x elapsed=0:02:50.47    \nframe=  118 fps=0.7 q=43.9 size=     512KiB time=00:00:01.93 bitrate=2169.7kbits/s speed=0.0113x elapsed=0:02:50.99    \nframe=  120 fps=0.7 q=44.0 size=     512KiB time=00:00:01.96 bitrate=2132.9kbits/s speed=0.0115x elapsed=0:02:51.53    \nframe=  120 fps=0.7 q=44.0 size=     512KiB time=00:00:01.96 bitrate=2132.9kbits/s speed=0.0114x elapsed=0:02:52.11    \nframe=  120 fps=0.7 q=44.0 size=     512KiB time=00:00:01.96 bitrate=2132.9kbits/s speed=0.0114x elapsed=0:02:52.68    \nframe=  120 fps=0.7 q=44.0 size=     512KiB time=00:00:01.96 bitrate=2132.9kbits/s speed=0.0114x elapsed=0:02:53.25    \nframe=  120 fps=0.7 q=44.0 size=     512KiB time=00:00:01.96 bitrate=2132.9kbits/s speed=0.0113x elapsed=0:02:53.83    \nframe=  121 fps=0.7 q=38.1 size=     512KiB time=00:00:01.98 bitrate=2115.0kbits/s speed=0.0114x elapsed=0:02:54.41    \nframe=  122 fps=0.7 q=43.1 size=     512KiB time=00:00:02.00 bitrate=2097.3kbits/s speed=0.0114x elapsed=0:02:54.97    \nframe=  122 fps=0.7 q=43.1 size=     512KiB time=00:00:02.00 bitrate=2097.3kbits/s speed=0.0114x elapsed=0:02:55.54    \nframe=  122 fps=0.7 q=43.1 size=     512KiB time=00:00:02.00 bitrate=2097.3kbits/s speed=0.0114x elapsed=0:02:56.14    \nframe=  122 fps=0.7 q=43.1 size=     512KiB time=00:00:02.00 bitrate=2097.3kbits/s speed=0.0113x elapsed=0:02:56.68    \nframe=  122 fps=0.7 q=43.1 size=     512KiB time=00:00:02.00 bitrate=2097.3kbits/s speed=0.0113x elapsed=0:02:57.21    \nframe=  123 fps=0.7 q=45.0 size=     512KiB time=00:00:02.01 bitrate=2080.0kbits/s speed=0.0113x elapsed=0:02:57.75    \nframe=  123 fps=0.7 q=45.0 size=     512KiB time=00:00:02.01 bitrate=2080.0kbits/s speed=0.0113x elapsed=0:02:58.32    \nframe=  123 fps=0.7 q=45.0 size=     512KiB time=00:00:02.01 bitrate=2080.0kbits/s speed=0.0113x elapsed=0:02:58.88    \nframe=  123 fps=0.7 q=45.0 size=     512KiB time=00:00:02.01 bitrate=2080.0kbits/s speed=0.0112x elapsed=0:02:59.44    \nframe=  124 fps=0.7 q=43.0 size=     512KiB time=00:00:02.03 bitrate=2062.9kbits/s speed=0.0113x elapsed=0:03:00.05    \nframe=  124 fps=0.7 q=43.0 size=     512KiB time=00:00:02.03 bitrate=2062.9kbits/s speed=0.0113x elapsed=0:03:00.58    \nframe=  124 fps=0.7 q=43.0 size=     512KiB time=00:00:02.03 bitrate=2062.9kbits/s speed=0.0112x elapsed=0:03:01.14    \nframe=  125 fps=0.7 q=37.9 size=     512KiB time=00:00:02.05 bitrate=2046.2kbits/s speed=0.0113x elapsed=0:03:01.77    \nframe=  125 fps=0.7 q=37.9 size=     512KiB time=00:00:02.05 bitrate=2046.2kbits/s speed=0.0112x elapsed=0:03:02.35    \nframe=  125 fps=0.7 q=37.9 size=     512KiB time=00:00:02.05 bitrate=2046.2kbits/s speed=0.0112x elapsed=0:03:02.98    \nframe=  125 fps=0.7 q=37.9 size=     512KiB time=00:00:02.05 bitrate=2046.2kbits/s speed=0.0112x elapsed=0:03:03.55    \nframe=  125 fps=0.7 q=37.9 size=     512KiB time=00:00:02.05 bitrate=2046.2kbits/s speed=0.0111x elapsed=0:03:04.12    \nframe=  125 fps=0.7 q=37.9 size=     512KiB time=00:00:02.05 bitrate=2046.2kbits/s speed=0.0111x elapsed=0:03:04.66    \nframe=  126 fps=0.7 q=42.3 size=     512KiB time=00:00:02.06 bitrate=2029.7kbits/s speed=0.0112x elapsed=0:03:05.23    \nframe=  126 fps=0.7 q=42.3 size=     512KiB time=00:00:02.06 bitrate=2029.7kbits/s speed=0.0111x elapsed=0:03:05.77    \nframe=  126 fps=0.7 q=42.3 size=     512KiB time=00:00:02.06 bitrate=2029.7kbits/s speed=0.0111x elapsed=0:03:06.33    \nframe=  126 fps=0.7 q=42.3 size=     512KiB time=00:00:02.06 bitrate=2029.7kbits/s speed=0.0111x elapsed=0:03:06.88    \nframe=  126 fps=0.7 q=42.3 size=     512KiB time=00:00:02.06 bitrate=2029.7kbits/s speed=0.011x elapsed=0:03:07.44    \nframe=  126 fps=0.7 q=42.3 size=     512KiB time=00:00:02.06 bitrate=2029.7kbits/s speed=0.011x elapsed=0:03:07.99    \nframe=  126 fps=0.7 q=42.3 size=     512KiB time=00:00:02.06 bitrate=2029.7kbits/s speed=0.011x elapsed=0:03:08.56    \nframe=  126 fps=0.7 q=42.3 size=     512KiB time=00:00:02.06 bitrate=2029.7kbits/s speed=0.0109x elapsed=0:03:09.11    \nframe=  126 fps=0.7 q=42.3 size=     512KiB time=00:00:02.06 bitrate=2029.7kbits/s speed=0.0109x elapsed=0:03:09.64    \nframe=  126 fps=0.7 q=42.3 size=     512KiB time=00:00:02.06 bitrate=2029.7kbits/s speed=0.0109x elapsed=0:03:10.17    \nframe=  127 fps=0.7 q=44.0 size=     512KiB time=00:00:02.08 bitrate=2013.4kbits/s speed=0.0109x elapsed=0:03:10.71    \nframe=  127 fps=0.7 q=44.0 size=     512KiB time=00:00:02.08 bitrate=2013.4kbits/s speed=0.0109x elapsed=0:03:11.30    \nframe=  127 fps=0.7 q=44.0 size=     512KiB time=00:00:02.08 bitrate=2013.4kbits/s speed=0.0109x elapsed=0:03:11.90    \nframe=  127 fps=0.7 q=44.0 size=     512KiB time=00:00:02.08 bitrate=2013.4kbits/s speed=0.0108x elapsed=0:03:12.48    \nframe=  128 fps=0.7 q=43.0 size=     512KiB time=00:00:02.10 bitrate=1997.5kbits/s speed=0.0109x elapsed=0:03:13.03    \nframe=  128 fps=0.7 q=43.0 size=     512KiB time=00:00:02.10 bitrate=1997.5kbits/s speed=0.0108x elapsed=0:03:13.56    \nframe=  128 fps=0.7 q=43.0 size=     512KiB time=00:00:02.10 bitrate=1997.5kbits/s speed=0.0108x elapsed=0:03:14.12    \nframe=  128 fps=0.7 q=43.0 size=     512KiB time=00:00:02.10 bitrate=1997.5kbits/s speed=0.0108x elapsed=0:03:14.64    \nframe=  128 fps=0.7 q=43.0 size=     512KiB time=00:00:02.10 bitrate=1997.5kbits/s speed=0.0108x elapsed=0:03:15.17    \nframe=  129 fps=0.7 q=38.0 size=     512KiB time=00:00:02.11 bitrate=1981.7kbits/s speed=0.0108x elapsed=0:03:15.72    \nframe=  130 fps=0.7 q=42.2 size=     512KiB time=00:00:02.13 bitrate=1966.2kbits/s speed=0.0109x elapsed=0:03:16.33    \nframe=  130 fps=0.7 q=42.2 size=     512KiB time=00:00:02.13 bitrate=1966.2kbits/s speed=0.0108x elapsed=0:03:16.92    \nframe=  130 fps=0.7 q=42.2 size=     512KiB time=00:00:02.13 bitrate=1966.2kbits/s speed=0.0108x elapsed=0:03:17.46    \nframe=  131 fps=0.7 q=44.0 size=     512KiB time=00:00:02.15 bitrate=1951.0kbits/s speed=0.0109x elapsed=0:03:18.02    \nframe=  131 fps=0.7 q=44.0 size=     512KiB time=00:00:02.15 bitrate=1951.0kbits/s speed=0.0108x elapsed=0:03:18.60    \nframe=  131 fps=0.7 q=44.0 size=     512KiB time=00:00:02.15 bitrate=1951.0kbits/s speed=0.0108x elapsed=0:03:19.14    \nframe=  131 fps=0.7 q=44.0 size=     512KiB time=00:00:02.15 bitrate=1951.0kbits/s speed=0.0108x elapsed=0:03:19.67    \nframe=  132 fps=0.7 q=44.0 size=     512KiB time=00:00:02.16 bitrate=1936.0kbits/s speed=0.0108x elapsed=0:03:20.22    \nframe=  132 fps=0.7 q=44.0 size=     512KiB time=00:00:02.16 bitrate=1936.0kbits/s speed=0.0108x elapsed=0:03:20.75    \nframe=  132 fps=0.7 q=44.0 size=     512KiB time=00:00:02.16 bitrate=1936.0kbits/s speed=0.0108x elapsed=0:03:21.27    \nframe=  133 fps=0.7 q=37.6 size=     512KiB time=00:00:02.18 bitrate=1921.2kbits/s speed=0.0108x elapsed=0:03:21.82    \nframe=  133 fps=0.7 q=37.6 size=     512KiB time=00:00:02.18 bitrate=1921.2kbits/s speed=0.0108x elapsed=0:03:22.38    \nframe=  133 fps=0.7 q=37.6 size=     512KiB time=00:00:02.18 bitrate=1921.2kbits/s speed=0.0108x elapsed=0:03:22.92    \nframe=  133 fps=0.7 q=37.6 size=     512KiB time=00:00:02.18 bitrate=1921.2kbits/s speed=0.0107x elapsed=0:03:23.49    \nframe=  133 fps=0.7 q=37.6 size=     512KiB time=00:00:02.18 bitrate=1921.2kbits/s speed=0.0107x elapsed=0:03:24.03    \nframe=  133 fps=0.7 q=37.6 size=     512KiB time=00:00:02.18 bitrate=1921.2kbits/s speed=0.0107x elapsed=0:03:24.58    \nframe=  134 fps=0.7 q=42.4 size=     512KiB time=00:00:02.20 bitrate=1906.7kbits/s speed=0.0107x elapsed=0:03:25.13    \nframe=  134 fps=0.7 q=42.4 size=     512KiB time=00:00:02.20 bitrate=1906.7kbits/s speed=0.0107x elapsed=0:03:25.67    \nframe=  134 fps=0.6 q=42.4 size=     512KiB time=00:00:02.20 bitrate=1906.7kbits/s speed=0.0107x elapsed=0:03:26.24    \nframe=  134 fps=0.6 q=42.4 size=     512KiB time=00:00:02.20 bitrate=1906.7kbits/s speed=0.0106x elapsed=0:03:26.85    \nframe=  134 fps=0.6 q=42.4 size=     512KiB time=00:00:02.20 bitrate=1906.7kbits/s speed=0.0106x elapsed=0:03:27.40    \nframe=  134 fps=0.6 q=42.4 size=     512KiB time=00:00:02.20 bitrate=1906.7kbits/s speed=0.0106x elapsed=0:03:27.93    \nframe=  134 fps=0.6 q=42.4 size=     512KiB time=00:00:02.20 bitrate=1906.7kbits/s speed=0.0106x elapsed=0:03:28.50    \nframe=  135 fps=0.6 q=44.0 size=     512KiB time=00:00:02.21 bitrate=1892.3kbits/s speed=0.0106x elapsed=0:03:29.02    \nframe=  135 fps=0.6 q=44.0 size=     512KiB time=00:00:02.21 bitrate=1892.3kbits/s speed=0.0106x elapsed=0:03:29.54    \nframe=  135 fps=0.6 q=44.0 size=     512KiB time=00:00:02.21 bitrate=1892.3kbits/s speed=0.0105x elapsed=0:03:30.11    \nframe=  136 fps=0.6 q=37.8 size=     512KiB time=00:00:02.23 bitrate=1878.2kbits/s speed=0.0106x elapsed=0:03:30.70    \nframe=  136 fps=0.6 q=37.8 size=     512KiB time=00:00:02.23 bitrate=1878.2kbits/s speed=0.0106x elapsed=0:03:31.27    \nframe=  137 fps=0.6 q=42.6 size=     512KiB time=00:00:02.25 bitrate=1864.3kbits/s speed=0.0106x elapsed=0:03:31.82    \nframe=  137 fps=0.6 q=42.6 size=     512KiB time=00:00:02.25 bitrate=1864.3kbits/s speed=0.0106x elapsed=0:03:32.40    \nframe=  137 fps=0.6 q=42.6 size=     512KiB time=00:00:02.25 bitrate=1864.3kbits/s speed=0.0106x elapsed=0:03:32.94    \nframe=  137 fps=0.6 q=42.6 size=     512KiB time=00:00:02.25 bitrate=1864.3kbits/s speed=0.0105x elapsed=0:03:33.47    \nframe=  137 fps=0.6 q=42.6 size=     512KiB time=00:00:02.25 bitrate=1864.3kbits/s speed=0.0105x elapsed=0:03:33.99    \nframe=  137 fps=0.6 q=42.6 size=     512KiB time=00:00:02.25 bitrate=1864.3kbits/s speed=0.0105x elapsed=0:03:34.53    \nframe=  138 fps=0.6 q=44.0 size=     512KiB time=00:00:02.26 bitrate=1850.6kbits/s speed=0.0105x elapsed=0:03:35.04    \nframe=  138 fps=0.6 q=44.0 size=     512KiB time=00:00:02.26 bitrate=1850.6kbits/s speed=0.0105x elapsed=0:03:35.61    \nframe=  139 fps=0.6 q=43.9 size=     512KiB time=00:00:02.28 bitrate=1837.1kbits/s speed=0.0106x elapsed=0:03:36.14    \nframe=  140 fps=0.6 q=38.0 size=     512KiB time=00:00:02.30 bitrate=1823.8kbits/s speed=0.0106x elapsed=0:03:36.70    \nframe=  140 fps=0.6 q=38.0 size=     512KiB time=00:00:02.30 bitrate=1823.8kbits/s speed=0.0106x elapsed=0:03:37.22    \nframe=  140 fps=0.6 q=38.0 size=     512KiB time=00:00:02.30 bitrate=1823.8kbits/s speed=0.0106x elapsed=0:03:37.78    \nframe=  140 fps=0.6 q=38.0 size=     512KiB time=00:00:02.30 bitrate=1823.8kbits/s speed=0.0105x elapsed=0:03:38.34    \nframe=  141 fps=0.6 q=42.7 size=     512KiB time=00:00:02.31 bitrate=1810.6kbits/s speed=0.0106x elapsed=0:03:38.96    \nframe=  141 fps=0.6 q=42.7 size=     512KiB time=00:00:02.31 bitrate=1810.6kbits/s speed=0.0105x elapsed=0:03:39.61    \nframe=  141 fps=0.6 q=42.7 size=     512KiB time=00:00:02.31 bitrate=1810.6kbits/s speed=0.0105x elapsed=0:03:40.26    \nframe=  141 fps=0.6 q=42.7 size=     512KiB time=00:00:02.31 bitrate=1810.6kbits/s speed=0.0105x elapsed=0:03:40.85    \nframe=  141 fps=0.6 q=42.7 size=     512KiB time=00:00:02.31 bitrate=1810.6kbits/s speed=0.0105x elapsed=0:03:41.41    \nframe=  141 fps=0.6 q=42.7 size=     512KiB time=00:00:02.31 bitrate=1810.6kbits/s speed=0.0104x elapsed=0:03:41.96    \nframe=  141 fps=0.6 q=42.7 size=     512KiB time=00:00:02.31 bitrate=1810.6kbits/s speed=0.0104x elapsed=0:03:42.52    \nframe=  141 fps=0.6 q=42.7 size=     512KiB time=00:00:02.31 bitrate=1810.6kbits/s speed=0.0104x elapsed=0:03:43.15    \nframe=  141 fps=0.6 q=42.7 size=     512KiB time=00:00:02.31 bitrate=1810.6kbits/s speed=0.0104x elapsed=0:03:43.76    \nframe=  142 fps=0.6 q=44.1 size=     512KiB time=00:00:02.33 bitrate=1797.7kbits/s speed=0.0104x elapsed=0:03:44.36    \nframe=  142 fps=0.6 q=44.1 size=     512KiB time=00:00:02.33 bitrate=1797.7kbits/s speed=0.0104x elapsed=0:03:44.94    \nframe=  142 fps=0.6 q=44.1 size=     512KiB time=00:00:02.33 bitrate=1797.7kbits/s speed=0.0103x elapsed=0:03:45.46    \nframe=  142 fps=0.6 q=44.1 size=     512KiB time=00:00:02.33 bitrate=1797.7kbits/s speed=0.0103x elapsed=0:03:46.01    \nframe=  143 fps=0.6 q=44.0 size=     512KiB time=00:00:02.35 bitrate=1785.0kbits/s speed=0.0104x elapsed=0:03:46.58    \nframe=  143 fps=0.6 q=44.0 size=     512KiB time=00:00:02.35 bitrate=1785.0kbits/s speed=0.0103x elapsed=0:03:47.11    \nframe=  144 fps=0.6 q=37.5 size=     512KiB time=00:00:02.36 bitrate=1772.4kbits/s speed=0.0104x elapsed=0:03:47.67    \nframe=  145 fps=0.6 q=42.3 size=     512KiB time=00:00:02.38 bitrate=1760.0kbits/s speed=0.0104x elapsed=0:03:48.19    \nframe=  145 fps=0.6 q=42.3 size=     512KiB time=00:00:02.38 bitrate=1760.0kbits/s speed=0.0104x elapsed=0:03:48.72    \nframe=  145 fps=0.6 q=42.3 size=     512KiB time=00:00:02.38 bitrate=1760.0kbits/s speed=0.0104x elapsed=0:03:49.26    \nframe=  146 fps=0.6 q=44.0 size=     512KiB time=00:00:02.40 bitrate=1747.8kbits/s speed=0.0104x elapsed=0:03:49.82    \nframe=  146 fps=0.6 q=44.0 size=     512KiB time=00:00:02.40 bitrate=1747.8kbits/s speed=0.0104x elapsed=0:03:50.35    \nframe=  147 fps=0.6 q=44.0 size=     512KiB time=00:00:02.41 bitrate=1735.7kbits/s speed=0.0105x elapsed=0:03:50.88    \nframe=  147 fps=0.6 q=44.0 size=     512KiB time=00:00:02.41 bitrate=1735.7kbits/s speed=0.0104x elapsed=0:03:51.42    \nframe=  148 fps=0.6 q=37.6 size=     512KiB time=00:00:02.43 bitrate=1723.8kbits/s speed=0.0105x elapsed=0:03:51.95    \nframe=  148 fps=0.6 q=37.6 size=     512KiB time=00:00:02.43 bitrate=1723.8kbits/s speed=0.0105x elapsed=0:03:52.50    \nframe=  148 fps=0.6 q=37.6 size=     512KiB time=00:00:02.43 bitrate=1723.8kbits/s speed=0.0104x elapsed=0:03:53.02    \nframe=  148 fps=0.6 q=37.6 size=     512KiB time=00:00:02.43 bitrate=1723.8kbits/s speed=0.0104x elapsed=0:03:53.55    \nframe=  149 fps=0.6 q=42.7 size=     512KiB time=00:00:02.45 bitrate=1712.1kbits/s speed=0.0105x elapsed=0:03:54.09    \nframe=  149 fps=0.6 q=42.7 size=     512KiB time=00:00:02.45 bitrate=1712.1kbits/s speed=0.0104x elapsed=0:03:54.63    \nframe=  149 fps=0.6 q=42.7 size=     512KiB time=00:00:02.45 bitrate=1712.1kbits/s speed=0.0104x elapsed=0:03:55.16    \nframe=  150 fps=0.6 q=44.0 size=     512KiB time=00:00:02.46 bitrate=1700.5kbits/s speed=0.0105x elapsed=0:03:55.70    \nframe=  150 fps=0.6 q=44.0 size=     512KiB time=00:00:02.46 bitrate=1700.5kbits/s speed=0.0104x elapsed=0:03:56.22    \nframe=  152 fps=0.6 q=41.9 size=     512KiB time=00:00:02.50 bitrate=1677.9kbits/s speed=0.0106x elapsed=0:03:56.73    \nframe=  153 fps=0.6 q=43.0 size=     512KiB time=00:00:02.51 bitrate=1666.8kbits/s speed=0.0106x elapsed=0:03:57.24    \nframe=  154 fps=0.6 q=43.0 size=     512KiB time=00:00:02.51 bitrate=1666.8kbits/s speed=0.0106x elapsed=0:03:57.77    \nframe=  154 fps=0.6 q=43.0 size=     512KiB time=00:00:02.53 bitrate=1655.8kbits/s speed=0.0106x elapsed=0:03:58.30    \nframe=  154 fps=0.6 q=43.0 size=     512KiB time=00:00:02.53 bitrate=1655.8kbits/s speed=0.0106x elapsed=0:03:58.83    \nframe=  154 fps=0.6 q=43.0 size=     512KiB time=00:00:02.53 bitrate=1655.8kbits/s speed=0.0106x elapsed=0:03:59.39    \nframe=  156 fps=0.7 q=42.2 size=     512KiB time=00:00:02.56 bitrate=1634.3kbits/s speed=0.0107x elapsed=0:03:59.91    \nframe=  156 fps=0.6 q=42.2 size=     512KiB time=00:00:02.56 bitrate=1634.3kbits/s speed=0.0107x elapsed=0:04:00.45    \nframe=  157 fps=0.7 q=44.0 size=     512KiB time=00:00:02.58 bitrate=1623.7kbits/s speed=0.0107x elapsed=0:04:00.97    \nframe=  158 fps=0.7 q=43.0 size=     512KiB time=00:00:02.60 bitrate=1613.3kbits/s speed=0.0108x elapsed=0:04:01.51    \nframe=  158 fps=0.7 q=43.0 size=     512KiB time=00:00:02.60 bitrate=1613.3kbits/s speed=0.0107x elapsed=0:04:02.05    \nframe=  159 fps=0.7 q=37.6 size=     512KiB time=00:00:02.61 bitrate=1603.1kbits/s speed=0.0108x elapsed=0:04:02.57    \nframe=  160 fps=0.7 q=42.0 size=     768KiB time=00:00:02.63 bitrate=2389.3kbits/s speed=0.0108x elapsed=0:04:03.09    \nframe=  160 fps=0.7 q=42.0 size=     768KiB time=00:00:02.63 bitrate=2389.3kbits/s speed=0.0108x elapsed=0:04:03.61    \nframe=  161 fps=0.7 q=44.0 size=     768KiB time=00:00:02.65 bitrate=2374.3kbits/s speed=0.0109x elapsed=0:04:04.15    \nframe=  162 fps=0.7 q=43.0 size=     768KiB time=00:00:02.66 bitrate=2359.4kbits/s speed=0.0109x elapsed=0:04:04.66    \nframe=  162 fps=0.7 q=43.0 size=     768KiB time=00:00:02.66 bitrate=2359.4kbits/s speed=0.0109x elapsed=0:04:05.19    \nframe=  162 fps=0.7 q=43.0 size=     768KiB time=00:00:02.66 bitrate=2359.4kbits/s speed=0.0109x elapsed=0:04:05.74    \nframe=  163 fps=0.7 q=37.8 size=     768KiB time=00:00:02.68 bitrate=2344.8kbits/s speed=0.0109x elapsed=0:04:06.24    \nframe=  163 fps=0.7 q=37.8 size=     768KiB time=00:00:02.68 bitrate=2344.8kbits/s speed=0.0109x elapsed=0:04:06.78    \nframe=  163 fps=0.7 q=37.8 size=     768KiB time=00:00:02.68 bitrate=2344.8kbits/s speed=0.0108x elapsed=0:04:07.32    \nframe=  164 fps=0.7 q=42.4 size=     768KiB time=00:00:02.70 bitrate=2330.3kbits/s speed=0.0109x elapsed=0:04:07.84    \nframe=  164 fps=0.7 q=42.4 size=     768KiB time=00:00:02.70 bitrate=2330.3kbits/s speed=0.0109x elapsed=0:04:08.36    \nframe=  165 fps=0.7 q=43.9 size=     768KiB time=00:00:02.71 bitrate=2316.0kbits/s speed=0.0109x elapsed=0:04:08.89    \nframe=  167 fps=0.7 q=42.0 size=     768KiB time=00:00:02.73 bitrate=2301.9kbits/s speed=0.011x elapsed=0:04:09.43    \nframe=  167 fps=0.7 q=42.0 size=     768KiB time=00:00:02.75 bitrate=2287.9kbits/s speed=0.011x elapsed=0:04:09.97    \nframe=  167 fps=0.7 q=42.0 size=     768KiB time=00:00:02.75 bitrate=2287.9kbits/s speed=0.011x elapsed=0:04:10.49    \nframe=  167 fps=0.7 q=42.0 size=     768KiB time=00:00:02.75 bitrate=2287.9kbits/s speed=0.011x elapsed=0:04:11.03    \nframe=  168 fps=0.7 q=43.0 size=     768KiB time=00:00:02.76 bitrate=2274.1kbits/s speed=0.011x elapsed=0:04:11.55    \nframe=  168 fps=0.7 q=43.0 size=     768KiB time=00:00:02.76 bitrate=2274.1kbits/s speed=0.011x elapsed=0:04:12.10    \nframe=  170 fps=0.7 q=37.7 size=     768KiB time=00:00:02.80 bitrate=2247.1kbits/s speed=0.0111x elapsed=0:04:12.61    \nframe=  171 fps=0.7 q=42.2 size=     768KiB time=00:00:02.81 bitrate=2233.8kbits/s speed=0.0111x elapsed=0:04:13.13    \nframe=  171 fps=0.7 q=42.2 size=     768KiB time=00:00:02.81 bitrate=2233.8kbits/s speed=0.0111x elapsed=0:04:13.68    \nframe=  171 fps=0.7 q=42.2 size=     768KiB time=00:00:02.81 bitrate=2233.8kbits/s speed=0.0111x elapsed=0:04:14.20    \nframe=  171 fps=0.7 q=42.2 size=     768KiB time=00:00:02.81 bitrate=2233.8kbits/s speed=0.0111x elapsed=0:04:14.71    \nframe=  172 fps=0.7 q=44.0 size=     768KiB time=00:00:02.83 bitrate=2220.6kbits/s speed=0.0111x elapsed=0:04:15.25    \nframe=  172 fps=0.7 q=44.0 size=     768KiB time=00:00:02.83 bitrate=2220.6kbits/s speed=0.0111x elapsed=0:04:15.81    \nframe=  173 fps=0.7 q=43.0 size=     768KiB time=00:00:02.85 bitrate=2207.7kbits/s speed=0.0111x elapsed=0:04:16.36    \nframe=  174 fps=0.7 q=37.4 size=     768KiB time=00:00:02.86 bitrate=2194.8kbits/s speed=0.0112x elapsed=0:04:16.91    \nframe=  175 fps=0.7 q=42.4 size=     768KiB time=00:00:02.88 bitrate=2182.1kbits/s speed=0.0112x elapsed=0:04:17.50    \nframe=  176 fps=0.7 q=44.0 size=     768KiB time=00:00:02.90 bitrate=2169.6kbits/s speed=0.0112x elapsed=0:04:18.05    \nframe=  176 fps=0.7 q=44.0 size=     768KiB time=00:00:02.90 bitrate=2169.6kbits/s speed=0.0112x elapsed=0:04:18.60    \nframe=  176 fps=0.7 q=44.0 size=     768KiB time=00:00:02.90 bitrate=2169.6kbits/s speed=0.0112x elapsed=0:04:19.22    \nframe=  176 fps=0.7 q=44.0 size=     768KiB time=00:00:02.90 bitrate=2169.6kbits/s speed=0.0112x elapsed=0:04:19.80    \nframe=  176 fps=0.7 q=44.0 size=     768KiB time=00:00:02.90 bitrate=2169.6kbits/s speed=0.0111x elapsed=0:04:20.41    \nframe=  176 fps=0.7 q=44.0 size=     768KiB time=00:00:02.90 bitrate=2169.6kbits/s speed=0.0111x elapsed=0:04:21.04    \nframe=  176 fps=0.7 q=44.0 size=     768KiB time=00:00:02.90 bitrate=2169.6kbits/s speed=0.0111x elapsed=0:04:21.64    \nframe=  177 fps=0.7 q=37.6 size=     768KiB time=00:00:02.91 bitrate=2157.2kbits/s speed=0.0111x elapsed=0:04:22.20    \nframe=  177 fps=0.7 q=37.6 size=     768KiB time=00:00:02.91 bitrate=2157.2kbits/s speed=0.0111x elapsed=0:04:22.77    \nframe=  178 fps=0.7 q=41.7 size=     768KiB time=00:00:02.93 bitrate=2144.9kbits/s speed=0.0111x elapsed=0:04:23.29    \nframe=  178 fps=0.7 q=41.7 size=     768KiB time=00:00:02.93 bitrate=2144.9kbits/s speed=0.0111x elapsed=0:04:23.84    \nframe=  179 fps=0.7 q=43.0 size=     768KiB time=00:00:02.95 bitrate=2132.8kbits/s speed=0.0112x elapsed=0:04:24.39    \nframe=  180 fps=0.7 q=43.0 size=     768KiB time=00:00:02.96 bitrate=2120.8kbits/s speed=0.0112x elapsed=0:04:24.94    \nframe=  181 fps=0.7 q=37.3 size=     768KiB time=00:00:02.98 bitrate=2109.0kbits/s speed=0.0112x elapsed=0:04:25.49    \nframe=  181 fps=0.7 q=37.3 size=     768KiB time=00:00:02.98 bitrate=2109.0kbits/s speed=0.0112x elapsed=0:04:26.06    \nframe=  181 fps=0.7 q=37.3 size=     768KiB time=00:00:02.98 bitrate=2109.0kbits/s speed=0.0112x elapsed=0:04:26.64    \nframe=  181 fps=0.7 q=37.3 size=     768KiB time=00:00:02.98 bitrate=2109.0kbits/s speed=0.0112x elapsed=0:04:27.17    \nframe=  181 fps=0.7 q=37.3 size=     768KiB time=00:00:02.98 bitrate=2109.0kbits/s speed=0.0111x elapsed=0:04:27.70    \nframe=  181 fps=0.7 q=37.3 size=     768KiB time=00:00:02.98 bitrate=2109.0kbits/s speed=0.0111x elapsed=0:04:28.31    \nframe=  181 fps=0.7 q=37.3 size=     768KiB time=00:00:02.98 bitrate=2109.0kbits/s speed=0.0111x elapsed=0:04:28.93    \nframe=  181 fps=0.7 q=37.3 size=     768KiB time=00:00:02.98 bitrate=2109.0kbits/s speed=0.0111x elapsed=0:04:29.50    \nframe=  182 fps=0.7 q=41.9 size=     768KiB time=00:00:03.00 bitrate=2097.3kbits/s speed=0.0111x elapsed=0:04:30.04    \nframe=  182 fps=0.7 q=41.9 size=     768KiB time=00:00:03.00 bitrate=2097.3kbits/s speed=0.0111x elapsed=0:04:30.56    \nframe=  182 fps=0.7 q=41.9 size=     768KiB time=00:00:03.00 bitrate=2097.3kbits/s speed=0.0111x elapsed=0:04:31.10    \nframe=  182 fps=0.7 q=41.9 size=     768KiB time=00:00:03.00 bitrate=2097.3kbits/s speed=0.011x elapsed=0:04:31.68    \nframe=  182 fps=0.7 q=41.9 size=     768KiB time=00:00:03.00 bitrate=2097.3kbits/s speed=0.011x elapsed=0:04:32.23    \nframe=  182 fps=0.7 q=41.9 size=     768KiB time=00:00:03.00 bitrate=2097.3kbits/s speed=0.011x elapsed=0:04:32.79    \nframe=  183 fps=0.7 q=43.1 size=     768KiB time=00:00:03.01 bitrate=2085.7kbits/s speed=0.011x elapsed=0:04:33.32    \nframe=  183 fps=0.7 q=43.1 size=     768KiB time=00:00:03.01 bitrate=2085.7kbits/s speed=0.011x elapsed=0:04:33.89    \nframe=  183 fps=0.7 q=43.1 size=     768KiB time=00:00:03.01 bitrate=2085.7kbits/s speed=0.011x elapsed=0:04:34.44    \nframe=  184 fps=0.7 q=43.0 size=     768KiB time=00:00:03.03 bitrate=2074.2kbits/s speed=0.011x elapsed=0:04:35.01    \nframe=  184 fps=0.7 q=43.0 size=     768KiB time=00:00:03.03 bitrate=2074.2kbits/s speed=0.011x elapsed=0:04:35.56    \nframe=  184 fps=0.7 q=43.0 size=     768KiB time=00:00:03.03 bitrate=2074.2kbits/s speed=0.011x elapsed=0:04:36.14    \nframe=  184 fps=0.7 q=43.0 size=     768KiB time=00:00:03.03 bitrate=2074.2kbits/s speed=0.011x elapsed=0:04:36.76    \nframe=  184 fps=0.7 q=43.0 size=     768KiB time=00:00:03.03 bitrate=2074.2kbits/s speed=0.0109x elapsed=0:04:37.34    \nframe=  187 fps=0.7 q=44.0 size=     768KiB time=00:00:03.08 bitrate=2040.6kbits/s speed=0.0111x elapsed=0:04:37.90    \nframe=  187 fps=0.7 q=44.0 size=     768KiB time=00:00:03.08 bitrate=2040.6kbits/s speed=0.0111x elapsed=0:04:38.43    \nframe=  187 fps=0.7 q=44.0 size=     768KiB time=00:00:03.08 bitrate=2040.6kbits/s speed=0.0111x elapsed=0:04:38.98    \nframe=  187 fps=0.7 q=44.0 size=     768KiB time=00:00:03.08 bitrate=2040.6kbits/s speed=0.011x elapsed=0:04:39.55    \nframe=  187 fps=0.7 q=44.0 size=     768KiB time=00:00:03.08 bitrate=2040.6kbits/s speed=0.011x elapsed=0:04:40.07    \nframe=  187 fps=0.7 q=44.0 size=     768KiB time=00:00:03.08 bitrate=2040.6kbits/s speed=0.011x elapsed=0:04:40.67    \nframe=  187 fps=0.7 q=44.0 size=     768KiB time=00:00:03.08 bitrate=2040.6kbits/s speed=0.011x elapsed=0:04:41.19    \nframe=  188 fps=0.7 q=43.0 size=     768KiB time=00:00:03.10 bitrate=2029.6kbits/s speed=0.011x elapsed=0:04:41.76    \nframe=  188 fps=0.7 q=43.0 size=     768KiB time=00:00:03.10 bitrate=2029.6kbits/s speed=0.011x elapsed=0:04:42.36    \nframe=  189 fps=0.7 q=37.4 size=     768KiB time=00:00:03.11 bitrate=2018.8kbits/s speed=0.011x elapsed=0:04:42.91    \nframe=  189 fps=0.7 q=37.4 size=     768KiB time=00:00:03.11 bitrate=2018.8kbits/s speed=0.011x elapsed=0:04:43.51    \nframe=  189 fps=0.7 q=37.4 size=     768KiB time=00:00:03.11 bitrate=2018.8kbits/s speed=0.011x elapsed=0:04:44.15    \nframe=  189 fps=0.7 q=37.4 size=     768KiB time=00:00:03.11 bitrate=2018.8kbits/s speed=0.0109x elapsed=0:04:44.75    \nframe=  189 fps=0.7 q=37.4 size=     768KiB time=00:00:03.11 bitrate=2018.8kbits/s speed=0.0109x elapsed=0:04:45.33    \nframe=  189 fps=0.7 q=37.4 size=     768KiB time=00:00:03.11 bitrate=2018.8kbits/s speed=0.0109x elapsed=0:04:45.92    \nframe=  189 fps=0.7 q=37.4 size=     768KiB time=00:00:03.11 bitrate=2018.8kbits/s speed=0.0109x elapsed=0:04:46.56    \nframe=  189 fps=0.7 q=37.4 size=     768KiB time=00:00:03.11 bitrate=2018.8kbits/s speed=0.0109x elapsed=0:04:47.19    \nframe=  189 fps=0.7 q=37.4 size=     768KiB time=00:00:03.11 bitrate=2018.8kbits/s speed=0.0108x elapsed=0:04:47.77    \nframe=  189 fps=0.7 q=37.4 size=     768KiB time=00:00:03.11 bitrate=2018.8kbits/s speed=0.0108x elapsed=0:04:48.36    \nframe=  189 fps=0.7 q=37.4 size=     768KiB time=00:00:03.11 bitrate=2018.8kbits/s speed=0.0108x elapsed=0:04:49.03    \nframe=  189 fps=0.7 q=37.4 size=     768KiB time=00:00:03.11 bitrate=2018.8kbits/s speed=0.0108x elapsed=0:04:49.60    \nframe=  189 fps=0.7 q=37.4 size=     768KiB time=00:00:03.11 bitrate=2018.8kbits/s speed=0.0107x elapsed=0:04:50.22    \nframe=  189 fps=0.6 q=37.4 size=     768KiB time=00:00:03.11 bitrate=2018.8kbits/s speed=0.0107x elapsed=0:04:50.79    \nframe=  189 fps=0.6 q=37.4 size=     768KiB time=00:00:03.11 bitrate=2018.8kbits/s speed=0.0107x elapsed=0:04:51.36    \nframe=  189 fps=0.6 q=37.4 size=     768KiB time=00:00:03.11 bitrate=2018.8kbits/s speed=0.0107x elapsed=0:04:51.88    \nframe=  190 fps=0.6 q=42.6 size=     768KiB time=00:00:03.13 bitrate=2008.0kbits/s speed=0.0107x elapsed=0:04:52.46    \nframe=  190 fps=0.6 q=42.6 size=     768KiB time=00:00:03.13 bitrate=2008.0kbits/s speed=0.0107x elapsed=0:04:53.03    \nframe=  191 fps=0.7 q=44.0 size=     768KiB time=00:00:03.15 bitrate=1997.4kbits/s speed=0.0107x elapsed=0:04:53.59    \nframe=  191 fps=0.6 q=44.0 size=     768KiB time=00:00:03.15 bitrate=1997.4kbits/s speed=0.0107x elapsed=0:04:54.15    \nframe=  191 fps=0.6 q=44.0 size=     768KiB time=00:00:03.15 bitrate=1997.4kbits/s speed=0.0107x elapsed=0:04:54.67    \nframe=  193 fps=0.7 q=42.2 size=     768KiB time=00:00:03.18 bitrate=1976.5kbits/s speed=0.0108x elapsed=0:04:55.24    \nframe=  193 fps=0.7 q=42.2 size=     768KiB time=00:00:03.18 bitrate=1976.5kbits/s speed=0.0108x elapsed=0:04:55.82    \nframe=  193 fps=0.7 q=42.2 size=     768KiB time=00:00:03.18 bitrate=1976.5kbits/s speed=0.0107x elapsed=0:04:56.35    \nframe=  194 fps=0.7 q=43.0 size=     768KiB time=00:00:03.20 bitrate=1966.2kbits/s speed=0.0108x elapsed=0:04:56.91    \nframe=  194 fps=0.7 q=43.0 size=     768KiB time=00:00:03.20 bitrate=1966.2kbits/s speed=0.0108x elapsed=0:04:57.43    \nframe=  194 fps=0.7 q=43.0 size=     768KiB time=00:00:03.20 bitrate=1966.2kbits/s speed=0.0107x elapsed=0:04:57.95    \nframe=  194 fps=0.6 q=43.0 size=     768KiB time=00:00:03.20 bitrate=1966.2kbits/s speed=0.0107x elapsed=0:04:58.50    \nframe=  195 fps=0.7 q=43.0 size=     768KiB time=00:00:03.21 bitrate=1956.0kbits/s speed=0.0108x elapsed=0:04:59.03    \nframe=  195 fps=0.7 q=43.0 size=     768KiB time=00:00:03.21 bitrate=1956.0kbits/s speed=0.0107x elapsed=0:04:59.55    \nframe=  195 fps=0.6 q=43.0 size=     768KiB time=00:00:03.21 bitrate=1956.0kbits/s speed=0.0107x elapsed=0:05:00.07    \nframe=  195 fps=0.6 q=43.0 size=     768KiB time=00:00:03.21 bitrate=1956.0kbits/s speed=0.0107x elapsed=0:05:00.66    \nframe=  195 fps=0.6 q=43.0 size=     768KiB time=00:00:03.21 bitrate=1956.0kbits/s speed=0.0107x elapsed=0:05:01.22    \nframe=  195 fps=0.6 q=43.0 size=     768KiB time=00:00:03.21 bitrate=1956.0kbits/s speed=0.0107x elapsed=0:05:01.75    \nframe=  195 fps=0.6 q=43.0 size=     768KiB time=00:00:03.21 bitrate=1956.0kbits/s speed=0.0106x elapsed=0:05:02.31    \nframe=  195 fps=0.6 q=43.0 size=     768KiB time=00:00:03.21 bitrate=1956.0kbits/s speed=0.0106x elapsed=0:05:02.87    \nframe=  196 fps=0.6 q=37.4 size=     768KiB time=00:00:03.23 bitrate=1945.9kbits/s speed=0.0107x elapsed=0:05:03.46    \nframe=  197 fps=0.6 q=42.3 size=     768KiB time=00:00:03.25 bitrate=1935.9kbits/s speed=0.0107x elapsed=0:05:04.02    \nframe=  197 fps=0.6 q=42.3 size=     768KiB time=00:00:03.25 bitrate=1935.9kbits/s speed=0.0107x elapsed=0:05:04.55    \nframe=  197 fps=0.6 q=42.3 size=     768KiB time=00:00:03.25 bitrate=1935.9kbits/s speed=0.0107x elapsed=0:05:05.07    \nframe=  197 fps=0.6 q=42.3 size=     768KiB time=00:00:03.25 bitrate=1935.9kbits/s speed=0.0106x elapsed=0:05:05.64    \nframe=  198 fps=0.6 q=44.0 size=     768KiB time=00:00:03.26 bitrate=1926.1kbits/s speed=0.0107x elapsed=0:05:06.20    \nframe=  199 fps=0.6 q=43.0 size=     768KiB time=00:00:03.28 bitrate=1916.3kbits/s speed=0.0107x elapsed=0:05:06.75    \nframe=  199 fps=0.6 q=43.0 size=     768KiB time=00:00:03.28 bitrate=1916.3kbits/s speed=0.0107x elapsed=0:05:07.29    \nframe=  199 fps=0.6 q=43.0 size=     768KiB time=00:00:03.28 bitrate=1916.3kbits/s speed=0.0107x elapsed=0:05:07.82    \nframe=  201 fps=0.7 q=42.5 size=     768KiB time=00:00:03.31 bitrate=1897.0kbits/s speed=0.0108x elapsed=0:05:08.35    \nframe=  201 fps=0.7 q=42.5 size=     768KiB time=00:00:03.31 bitrate=1897.0kbits/s speed=0.0107x elapsed=0:05:08.88    \nframe=  201 fps=0.6 q=42.5 size=     768KiB time=00:00:03.31 bitrate=1897.0kbits/s speed=0.0107x elapsed=0:05:09.40    \nframe=  201 fps=0.6 q=42.5 size=     768KiB time=00:00:03.31 bitrate=1897.0kbits/s speed=0.0107x elapsed=0:05:09.94    \nframe=  201 fps=0.6 q=42.5 size=     768KiB time=00:00:03.31 bitrate=1897.0kbits/s speed=0.0107x elapsed=0:05:10.47    \nframe=  201 fps=0.6 q=42.5 size=     768KiB time=00:00:03.31 bitrate=1897.0kbits/s speed=0.0107x elapsed=0:05:11.04    \nframe=  202 fps=0.6 q=44.0 size=     768KiB time=00:00:03.33 bitrate=1887.5kbits/s speed=0.0107x elapsed=0:05:11.57    \nframe=  202 fps=0.6 q=44.0 size=     768KiB time=00:00:03.33 bitrate=1887.5kbits/s speed=0.0107x elapsed=0:05:12.11    \nframe=  203 fps=0.6 q=43.1 size=     768KiB time=00:00:03.35 bitrate=1878.2kbits/s speed=0.0107x elapsed=0:05:12.65    \nframe=  203 fps=0.6 q=43.1 size=     768KiB time=00:00:03.35 bitrate=1878.2kbits/s speed=0.0107x elapsed=0:05:13.20    \nframe=  205 fps=0.7 q=42.3 size=     768KiB time=00:00:03.36 bitrate=1868.9kbits/s speed=0.0107x elapsed=0:05:13.73    \nframe=  205 fps=0.7 q=42.3 size=     768KiB time=00:00:03.38 bitrate=1859.6kbits/s speed=0.0108x elapsed=0:05:14.28    \nframe=  205 fps=0.7 q=42.3 size=     768KiB time=00:00:03.38 bitrate=1859.6kbits/s speed=0.0107x elapsed=0:05:14.79    \nframe=  205 fps=0.7 q=42.3 size=     768KiB time=00:00:03.38 bitrate=1859.6kbits/s speed=0.0107x elapsed=0:05:15.31    \nframe=  205 fps=0.6 q=42.3 size=     768KiB time=00:00:03.38 bitrate=1859.6kbits/s speed=0.0107x elapsed=0:05:15.89    \nframe=  206 fps=0.7 q=44.0 size=     768KiB time=00:00:03.40 bitrate=1850.5kbits/s speed=0.0107x elapsed=0:05:16.41    \nframe=  207 fps=0.7 q=43.1 size=     768KiB time=00:00:03.41 bitrate=1841.5kbits/s speed=0.0108x elapsed=0:05:16.97    \nframe=  209 fps=0.7 q=42.2 size=     768KiB time=00:00:03.45 bitrate=1823.7kbits/s speed=0.0109x elapsed=0:05:17.51    \nframe=  209 fps=0.7 q=42.2 size=     768KiB time=00:00:03.45 bitrate=1823.7kbits/s speed=0.0108x elapsed=0:05:18.07    \nframe=  210 fps=0.7 q=44.0 size=     768KiB time=00:00:03.46 bitrate=1814.9kbits/s speed=0.0109x elapsed=0:05:18.58    \nframe=  210 fps=0.7 q=44.0 size=     768KiB time=00:00:03.46 bitrate=1814.9kbits/s speed=0.0109x elapsed=0:05:19.11    \nframe=  211 fps=0.7 q=43.1 size=     768KiB time=00:00:03.48 bitrate=1806.3kbits/s speed=0.0109x elapsed=0:05:19.65    \nframe=  211 fps=0.7 q=43.1 size=     768KiB time=00:00:03.48 bitrate=1806.3kbits/s speed=0.0109x elapsed=0:05:20.20    \nframe=  211 fps=0.7 q=43.1 size=     768KiB time=00:00:03.48 bitrate=1806.3kbits/s speed=0.0109x elapsed=0:05:20.72    \nframe=  211 fps=0.7 q=43.1 size=     768KiB time=00:00:03.48 bitrate=1806.3kbits/s speed=0.0108x elapsed=0:05:21.26    \nframe=  211 fps=0.7 q=43.1 size=     768KiB time=00:00:03.48 bitrate=1806.3kbits/s speed=0.0108x elapsed=0:05:21.79    \nframe=  212 fps=0.7 q=37.0 size=     768KiB time=00:00:03.50 bitrate=1797.7kbits/s speed=0.0109x elapsed=0:05:22.33    \nframe=  213 fps=0.7 q=44.0 size=    1024KiB time=00:00:03.50 bitrate=2396.8kbits/s speed=0.0108x elapsed=0:05:22.88    \nframe=  214 fps=0.7 q=37.3 size=    1024KiB time=00:00:03.53 bitrate=2374.2kbits/s speed=0.0109x elapsed=0:05:23.42    \nframe=  215 fps=0.7 q=41.6 size=    1024KiB time=00:00:03.55 bitrate=2363.1kbits/s speed=0.011x elapsed=0:05:23.97    \nframe=  215 fps=0.7 q=41.6 size=    1024KiB time=00:00:03.55 bitrate=2363.1kbits/s speed=0.0109x elapsed=0:05:24.51    \nframe=  215 fps=0.7 q=41.6 size=    1024KiB time=00:00:03.55 bitrate=2363.1kbits/s speed=0.0109x elapsed=0:05:25.06    \nframe=  216 fps=0.7 q=43.0 size=    1024KiB time=00:00:03.56 bitrate=2352.0kbits/s speed=0.011x elapsed=0:05:25.57    \nframe=  216 fps=0.7 q=43.0 size=    1024KiB time=00:00:03.56 bitrate=2352.0kbits/s speed=0.0109x elapsed=0:05:26.10    \nframe=  216 fps=0.7 q=43.0 size=    1024KiB time=00:00:03.56 bitrate=2352.0kbits/s speed=0.0109x elapsed=0:05:26.63    \nframe=  217 fps=0.7 q=43.1 size=    1024KiB time=00:00:03.58 bitrate=2341.1kbits/s speed=0.011x elapsed=0:05:27.16    \nframe=  218 fps=0.7 q=37.1 size=    1024KiB time=00:00:03.60 bitrate=2330.3kbits/s speed=0.011x elapsed=0:05:27.69    \nframe=  218 fps=0.7 q=37.1 size=    1024KiB time=00:00:03.60 bitrate=2330.3kbits/s speed=0.011x elapsed=0:05:28.22    \nframe=  218 fps=0.7 q=37.1 size=    1024KiB time=00:00:03.60 bitrate=2330.3kbits/s speed=0.011x elapsed=0:05:28.74    \nframe=  219 fps=0.7 q=42.2 size=    1024KiB time=00:00:03.61 bitrate=2319.5kbits/s speed=0.011x elapsed=0:05:29.30    \nframe=  220 fps=0.7 q=43.1 size=    1024KiB time=00:00:03.63 bitrate=2308.9kbits/s speed=0.011x elapsed=0:05:29.83    \nframe=  220 fps=0.7 q=43.1 size=    1024KiB time=00:00:03.63 bitrate=2308.9kbits/s speed=0.011x elapsed=0:05:30.35    \nframe=  220 fps=0.7 q=43.1 size=    1024KiB time=00:00:03.63 bitrate=2308.9kbits/s speed=0.011x elapsed=0:05:30.91    \nframe=  221 fps=0.7 q=43.0 size=    1024KiB time=00:00:03.63 bitrate=2308.9kbits/s speed=0.011x elapsed=0:05:31.48    \nframe=  221 fps=0.7 q=43.0 size=    1024KiB time=00:00:03.65 bitrate=2298.3kbits/s speed=0.011x elapsed=0:05:32.05    \nframe=  222 fps=0.7 q=37.1 size=    1024KiB time=00:00:03.66 bitrate=2287.9kbits/s speed=0.011x elapsed=0:05:32.59    \nframe=  222 fps=0.7 q=37.1 size=    1024KiB time=00:00:03.66 bitrate=2287.9kbits/s speed=0.011x elapsed=0:05:33.15    \nframe=  223 fps=0.7 q=42.3 size=    1024KiB time=00:00:03.68 bitrate=2277.5kbits/s speed=0.011x elapsed=0:05:33.76    \nframe=  223 fps=0.7 q=42.3 size=    1024KiB time=00:00:03.68 bitrate=2277.5kbits/s speed=0.011x elapsed=0:05:34.35    \nframe=  223 fps=0.7 q=42.3 size=    1024KiB time=00:00:03.68 bitrate=2277.5kbits/s speed=0.011x elapsed=0:05:34.88    \nframe=  224 fps=0.7 q=43.0 size=    1024KiB time=00:00:03.70 bitrate=2267.3kbits/s speed=0.011x elapsed=0:05:35.41    \nframe=  224 fps=0.7 q=43.0 size=    1024KiB time=00:00:03.70 bitrate=2267.3kbits/s speed=0.011x elapsed=0:05:35.94    \nframe=  225 fps=0.7 q=43.0 size=    1024KiB time=00:00:03.71 bitrate=2257.1kbits/s speed=0.011x elapsed=0:05:36.47    \nframe=  226 fps=0.7 q=37.2 size=    1024KiB time=00:00:03.73 bitrate=2247.0kbits/s speed=0.0111x elapsed=0:05:36.99    \nframe=  227 fps=0.7 q=42.1 size=    1024KiB time=00:00:03.75 bitrate=2237.1kbits/s speed=0.0111x elapsed=0:05:37.56    \nframe=  228 fps=0.7 q=43.0 size=    1024KiB time=00:00:03.76 bitrate=2227.2kbits/s speed=0.0111x elapsed=0:05:38.08    \nframe=  229 fps=0.7 q=42.0 size=    1024KiB time=00:00:03.78 bitrate=2217.3kbits/s speed=0.0112x elapsed=0:05:38.62    \nframe=  230 fps=0.7 q=38.0 size=    1024KiB time=00:00:03.80 bitrate=2207.6kbits/s speed=0.0112x elapsed=0:05:39.15    \nframe=  231 fps=0.7 q=43.8 size=    1024KiB time=00:00:03.81 bitrate=2198.0kbits/s speed=0.0112x elapsed=0:05:39.67    \nframe=  232 fps=0.7 q=45.0 size=    1024KiB time=00:00:03.83 bitrate=2188.4kbits/s speed=0.0113x elapsed=0:05:40.20    \nframe=  233 fps=0.7 q=45.0 size=    1024KiB time=00:00:03.85 bitrate=2179.0kbits/s speed=0.0113x elapsed=0:05:40.73    \nframe=  234 fps=0.7 q=37.7 size=    1024KiB time=00:00:03.86 bitrate=2169.6kbits/s speed=0.0113x elapsed=0:05:41.25    \nframe=  235 fps=0.7 q=43.7 size=    1024KiB time=00:00:03.88 bitrate=2160.2kbits/s speed=0.0114x elapsed=0:05:41.78    \nframe=  235 fps=0.7 q=43.7 size=    1024KiB time=00:00:03.88 bitrate=2160.2kbits/s speed=0.0113x elapsed=0:05:42.30    \nframe=  236 fps=0.7 q=45.0 size=    1024KiB time=00:00:03.90 bitrate=2151.0kbits/s speed=0.0114x elapsed=0:05:42.82    \nframe=  237 fps=0.7 q=45.0 size=    1024KiB time=00:00:03.91 bitrate=2141.9kbits/s speed=0.0114x elapsed=0:05:43.34    \nframe=  239 fps=0.7 q=43.6 size=    1024KiB time=00:00:03.95 bitrate=2123.8kbits/s speed=0.0115x elapsed=0:05:43.87    \nframe=  239 fps=0.7 q=43.6 size=    1024KiB time=00:00:03.95 bitrate=2123.8kbits/s speed=0.0115x elapsed=0:05:44.39    \nframe=  240 fps=0.7 q=45.0 size=    1024KiB time=00:00:03.96 bitrate=2114.9kbits/s speed=0.0115x elapsed=0:05:44.91    \nframe=  242 fps=0.7 q=37.5 size=    1024KiB time=00:00:04.00 bitrate=2097.2kbits/s speed=0.0116x elapsed=0:05:45.43    \nframe=  243 fps=0.7 q=44.0 size=    1024KiB time=00:00:04.01 bitrate=2088.5kbits/s speed=0.0116x elapsed=0:05:45.95    \nframe=  244 fps=0.7 q=45.0 size=    1024KiB time=00:00:04.03 bitrate=2079.9kbits/s speed=0.0116x elapsed=0:05:46.48    \nframe=  245 fps=0.7 q=45.0 size=    1024KiB time=00:00:04.05 bitrate=2071.3kbits/s speed=0.0117x elapsed=0:05:47.00    \nframe=  246 fps=0.7 q=45.0 size=    1024KiB time=00:00:04.06 bitrate=2062.9kbits/s speed=0.0117x elapsed=0:05:47.52    \nframe=  248 fps=0.7 q=43.5 size=    1024KiB time=00:00:04.10 bitrate=2046.1kbits/s speed=0.0118x elapsed=0:05:48.06    \nframe=  248 fps=0.7 q=43.5 size=    1024KiB time=00:00:04.10 bitrate=2046.1kbits/s speed=0.0118x elapsed=0:05:48.58    \nframe=  248 fps=0.7 q=43.5 size=    1024KiB time=00:00:04.10 bitrate=2046.1kbits/s speed=0.0117x elapsed=0:05:49.08    \nframe=  248 fps=0.7 q=43.5 size=    1024KiB time=00:00:04.10 bitrate=2046.1kbits/s speed=0.0117x elapsed=0:05:49.61    \nframe=  249 fps=0.7 q=45.0 size=    1024KiB time=00:00:04.11 bitrate=2037.8kbits/s speed=0.0118x elapsed=0:05:50.14    \nframe=  249 fps=0.7 q=45.0 size=    1024KiB time=00:00:04.11 bitrate=2037.8kbits/s speed=0.0117x elapsed=0:05:50.66    \nframe=  250 fps=0.7 q=45.0 size=    1024KiB time=00:00:04.13 bitrate=2029.6kbits/s speed=0.0118x elapsed=0:05:51.17    \nframe=  250 fps=0.7 q=45.0 size=    1024KiB time=00:00:04.13 bitrate=2029.6kbits/s speed=0.0118x elapsed=0:05:51.69    \nframe=  251 fps=0.7 q=36.9 size=    1024KiB time=00:00:04.15 bitrate=2021.4kbits/s speed=0.0118x elapsed=0:05:52.21    \nframe=  251 fps=0.7 q=36.9 size=    1024KiB time=00:00:04.15 bitrate=2021.4kbits/s speed=0.0118x elapsed=0:05:52.74    \nframe=  252 fps=0.7 q=38.8 size=    1280KiB time=00:00:04.16 bitrate=2516.7kbits/s speed=0.0118x elapsed=0:05:53.26    \nframe=  252 fps=0.7 q=38.8 size=    1280KiB time=00:00:04.16 bitrate=2516.7kbits/s speed=0.0118x elapsed=0:05:53.78    \nframe=  253 fps=0.7 q=44.8 size=    1280KiB time=00:00:04.18 bitrate=2506.6kbits/s speed=0.0118x elapsed=0:05:54.30    \nframe=  254 fps=0.7 q=47.0 size=    1280KiB time=00:00:04.20 bitrate=2496.7kbits/s speed=0.0118x elapsed=0:05:54.83    \nframe=  254 fps=0.7 q=47.0 size=    1280KiB time=00:00:04.20 bitrate=2496.7kbits/s speed=0.0118x elapsed=0:05:55.35    \nframe=  256 fps=0.7 q=37.9 size=    1280KiB time=00:00:04.23 bitrate=2477.0kbits/s speed=0.0119x elapsed=0:05:55.90    \nframe=  257 fps=0.7 q=44.8 size=    1280KiB time=00:00:04.25 bitrate=2467.3kbits/s speed=0.0119x elapsed=0:05:56.41    \nframe=  257 fps=0.7 q=44.8 size=    1280KiB time=00:00:04.25 bitrate=2467.3kbits/s speed=0.0119x elapsed=0:05:56.93    \nframe=  257 fps=0.7 q=44.8 size=    1280KiB time=00:00:04.25 bitrate=2467.3kbits/s speed=0.0119x elapsed=0:05:57.46    \nframe=  258 fps=0.7 q=46.0 size=    1280KiB time=00:00:04.26 bitrate=2457.7kbits/s speed=0.0119x elapsed=0:05:57.98    \nframe=  259 fps=0.7 q=46.0 size=    1280KiB time=00:00:04.28 bitrate=2448.1kbits/s speed=0.0119x elapsed=0:05:58.51    \nframe=  260 fps=0.7 q=38.2 size=    1280KiB time=00:00:04.30 bitrate=2438.6kbits/s speed=0.012x elapsed=0:05:59.04    \nframe=  260 fps=0.7 q=38.2 size=    1280KiB time=00:00:04.30 bitrate=2438.6kbits/s speed=0.012x elapsed=0:05:59.56    \nframe=  261 fps=0.7 q=40.4 size=    1280KiB time=00:00:04.31 bitrate=2429.2kbits/s speed=0.012x elapsed=0:06:00.09    \nframe=  262 fps=0.7 q=46.0 size=    1280KiB time=00:00:04.33 bitrate=2419.9kbits/s speed=0.012x elapsed=0:06:00.62    \nframe=  262 fps=0.7 q=46.0 size=    1280KiB time=00:00:04.33 bitrate=2419.9kbits/s speed=0.012x elapsed=0:06:01.13    \nframe=  263 fps=0.7 q=46.0 size=    1280KiB time=00:00:04.35 bitrate=2410.6kbits/s speed=0.012x elapsed=0:06:01.65    \nframe=  264 fps=0.7 q=46.0 size=    1280KiB time=00:00:04.36 bitrate=2401.4kbits/s speed=0.0121x elapsed=0:06:02.21    \nframe=  265 fps=0.7 q=37.9 size=    1280KiB time=00:00:04.38 bitrate=2392.3kbits/s speed=0.0121x elapsed=0:06:02.73    \nframe=  267 fps=0.7 q=46.0 size=    1280KiB time=00:00:04.41 bitrate=2374.2kbits/s speed=0.0122x elapsed=0:06:03.25    \nframe=  267 fps=0.7 q=46.0 size=    1280KiB time=00:00:04.41 bitrate=2374.2kbits/s speed=0.0121x elapsed=0:06:03.75    \nframe=  269 fps=0.7 q=38.1 size=    1280KiB time=00:00:04.45 bitrate=2356.4kbits/s speed=0.0122x elapsed=0:06:04.28    \nframe=  270 fps=0.7 q=44.7 size=    1280KiB time=00:00:04.46 bitrate=2347.6kbits/s speed=0.0122x elapsed=0:06:04.81    \nframe=  271 fps=0.7 q=46.0 size=    1280KiB time=00:00:04.48 bitrate=2338.9kbits/s speed=0.0123x elapsed=0:06:05.33    \nframe=  272 fps=0.7 q=46.0 size=    1280KiB time=00:00:04.50 bitrate=2330.2kbits/s speed=0.0123x elapsed=0:06:05.83    \nframe=  273 fps=0.7 q=38.0 size=    1280KiB time=00:00:04.51 bitrate=2321.6kbits/s speed=0.0123x elapsed=0:06:06.36    \nframe=  273 fps=0.7 q=38.0 size=    1280KiB time=00:00:04.51 bitrate=2321.6kbits/s speed=0.0123x elapsed=0:06:06.88    \nframe=  274 fps=0.7 q=44.4 size=    1280KiB time=00:00:04.53 bitrate=2313.1kbits/s speed=0.0123x elapsed=0:06:07.39    \nframe=  274 fps=0.7 q=44.4 size=    1280KiB time=00:00:04.53 bitrate=2313.1kbits/s speed=0.0123x elapsed=0:06:07.90    \nframe=  275 fps=0.7 q=46.0 size=    1280KiB time=00:00:04.55 bitrate=2304.6kbits/s speed=0.0123x elapsed=0:06:08.42    \nframe=  275 fps=0.7 q=46.0 size=    1280KiB time=00:00:04.55 bitrate=2304.6kbits/s speed=0.0123x elapsed=0:06:08.95    \nframe=  277 fps=0.7 q=38.2 size=    1280KiB time=00:00:04.58 bitrate=2287.9kbits/s speed=0.0124x elapsed=0:06:09.47    \nframe=  278 fps=0.8 q=44.7 size=    1280KiB time=00:00:04.60 bitrate=2279.6kbits/s speed=0.0124x elapsed=0:06:09.98    \nframe=  278 fps=0.8 q=44.7 size=    1280KiB time=00:00:04.60 bitrate=2279.6kbits/s speed=0.0124x elapsed=0:06:10.50    \nframe=  278 fps=0.7 q=44.7 size=    1280KiB time=00:00:04.60 bitrate=2279.6kbits/s speed=0.0124x elapsed=0:06:11.02    \nframe=  280 fps=0.8 q=45.0 size=    1280KiB time=00:00:04.63 bitrate=2263.2kbits/s speed=0.0125x elapsed=0:06:11.54    \nframe=  281 fps=0.8 q=37.9 size=    1280KiB time=00:00:04.65 bitrate=2255.1kbits/s speed=0.0125x elapsed=0:06:12.06    \nframe=  281 fps=0.8 q=37.9 size=    1280KiB time=00:00:04.65 bitrate=2255.1kbits/s speed=0.0125x elapsed=0:06:12.58    \nframe=  282 fps=0.8 q=43.6 size=    1280KiB time=00:00:04.66 bitrate=2247.0kbits/s speed=0.0125x elapsed=0:06:13.09    \nframe=  283 fps=0.8 q=44.0 size=    1280KiB time=00:00:04.68 bitrate=2239.0kbits/s speed=0.0125x elapsed=0:06:13.61    \nframe=  284 fps=0.8 q=44.0 size=    1280KiB time=00:00:04.70 bitrate=2231.1kbits/s speed=0.0126x elapsed=0:06:14.12    \nframe=  285 fps=0.8 q=37.9 size=    1280KiB time=00:00:04.71 bitrate=2223.2kbits/s speed=0.0126x elapsed=0:06:14.64    \nframe=  286 fps=0.8 q=43.5 size=    1280KiB time=00:00:04.73 bitrate=2215.4kbits/s speed=0.0126x elapsed=0:06:15.17    \nframe=  287 fps=0.8 q=44.0 size=    1280KiB time=00:00:04.75 bitrate=2207.6kbits/s speed=0.0126x elapsed=0:06:15.69    \nframe=  287 fps=0.8 q=44.0 size=    1280KiB time=00:00:04.75 bitrate=2207.6kbits/s speed=0.0126x elapsed=0:06:16.23    \nframe=  288 fps=0.8 q=44.0 size=    1280KiB time=00:00:04.76 bitrate=2199.9kbits/s speed=0.0127x elapsed=0:06:16.76    \nframe=  290 fps=0.8 q=42.5 size=    1280KiB time=00:00:04.80 bitrate=2184.6kbits/s speed=0.0127x elapsed=0:06:17.27    \nframe=  290 fps=0.8 q=42.5 size=    1280KiB time=00:00:04.80 bitrate=2184.6kbits/s speed=0.0127x elapsed=0:06:17.79    \nframe=  290 fps=0.8 q=42.5 size=    1280KiB time=00:00:04.80 bitrate=2184.6kbits/s speed=0.0127x elapsed=0:06:18.32    \nframe=  293 fps=0.8 q=38.9 size=    1280KiB time=00:00:04.85 bitrate=2162.1kbits/s speed=0.0128x elapsed=0:06:18.82    \nframe=  294 fps=0.8 q=40.1 size=    1280KiB time=00:00:04.86 bitrate=2154.7kbits/s speed=0.0128x elapsed=0:06:19.34    \nframe=  295 fps=0.8 q=41.0 size=    1280KiB time=00:00:04.88 bitrate=2147.3kbits/s speed=0.0129x elapsed=0:06:19.85    \nframe=  295 fps=0.8 q=41.0 size=    1280KiB time=00:00:04.88 bitrate=2147.3kbits/s speed=0.0128x elapsed=0:06:20.37    \nframe=  296 fps=0.8 q=39.9 size=    1280KiB time=00:00:04.90 bitrate=2140.0kbits/s speed=0.0129x elapsed=0:06:20.88    \nframe=  297 fps=0.8 q=38.0 size=    1280KiB time=00:00:04.91 bitrate=2132.8kbits/s speed=0.0129x elapsed=0:06:21.40    \n[mp4 @ 000001706b06f140] Starting second pass: moving the moov atom to the beginning of the file\n[out#0/mp4 @ 000001706b06f040] video:1497KiB audio:0KiB subtitle:0KiB other streams:0KiB global headers:2KiB muxing overhead: 0.473332%\nframe=  300 fps=0.8 q=37.0 Lsize=    1505KiB time=00:00:04.96 bitrate=2481.6kbits/s speed=0.013x elapsed=0:06:21.80    \nx265 [info]: frame I:      2, Avg QP:39.44  kb/s: 43963.68\nx265 [info]: frame P:     77, Avg QP:38.63  kb/s: 7550.13 \nx265 [info]: frame B:    221, Avg QP:44.42  kb/s: 299.37  \nx265 [info]: Weighted P-Frames: Y:0.0% UV:0.0%\n\nencoded 300 frames in 381.48s (0.79 fps), 2451.49 kb/s, Avg QP:42.90\n",
  "seconds": 382.28140211105347,
  "probe_out": {}
}